<?xml version="1.0" encoding="UTF-8" standalone="no"?>
<!DOCTYPE svg PUBLIC "-//W3C//DTD SVG 1.1//EN" "http://www.w3.org/Graphics/SVG/1.1/DTD/svg11.dtd">
<svg xmlns="http://www.w3.org/2000/svg" version="1.1" viewBox="0.00 0.00 199.00 147.00">
<path fill="#f69320" d="
  M 120.57 10.81
  L 115.11 16.27
  A 0.51 0.51 0.0 0 1 114.39 16.27
  L 105.83 7.70
  A 0.51 0.51 0.0 0 1 106.30 6.84
  L 120.32 9.95
  A 0.51 0.51 0.0 0 1 120.57 10.81
  Z"
/>
<path fill="#f69320" d="
  M 74.60 11.23
  L 88.76 8.71
  A 0.35 0.35 0.0 0 1 89.07 9.30
  L 80.79 17.58
  A 0.35 0.35 0.0 0 1 80.30 17.59
  L 74.42 11.83
  A 0.35 0.35 0.0 0 1 74.60 11.23
  Z"
/>
<path fill="#f69320" d="
  M 100.76 9.40
  L 113.06 21.56
  A 0.31 0.31 0.0 0 1 113.06 22.01
  L 100.72 34.13
  A 0.31 0.31 0.0 0 1 100.19 33.91
  L 100.23 9.62
  A 0.31 0.31 0.0 0 1 100.76 9.40
  Z"
/>
<path fill="#f69320" d="
  M 83.56 20.17
  C 87.07 16.23 90.70 12.17 95.31 9.61
  A 0.43 0.43 0.0 0 1 95.95 9.99
  L 96.13 33.06
  A 0.31 0.31 0.0 0 1 95.59 33.28
  L 83.58 20.99
  Q 83.18 20.59 83.56 20.17
  Z"
/>
<path fill="#f69320" d="
  M 67.35 14.91
  C 70.46 13.42 74.92 18.59 76.90 20.75
  Q 77.24 21.12 76.89 21.47
  L 64.53 34.01
  A 0.42 0.42 0.0 0 1 63.81 33.73
  C 63.57 28.23 61.10 17.91 67.35 14.91
  Z"
/>
<path fill="#f69320" d="
  M 131.88 33.78
  L 119.02 22.37
  Q 118.63 22.02 118.99 21.64
  C 121.25 19.30 124.42 16.15 127.82 16.67
  C 134.73 17.74 132.62 28.65 132.53 33.50
  A 0.39 0.39 0.0 0 1 131.88 33.78
  Z"
/>
<path fill="#f69320" d="
  M 58.78 35.34
  L 51.42 28.08
  A 0.31 0.31 0.0 0 1 51.43 27.63
  L 59.06 20.67
  A 0.31 0.31 0.0 0 1 59.58 20.91
  L 59.31 35.12
  A 0.31 0.31 0.0 0 1 58.78 35.34
  Z"
/>
<path fill="#f69320" d="
  M 138.65 21.67
  L 146.51 28.02
  A 0.34 0.34 0.0 0 1 146.52 28.54
  L 138.95 35.24
  A 0.34 0.34 0.0 0 1 138.39 34.99
  L 138.09 21.94
  A 0.34 0.34 0.0 0 1 138.65 21.67
  Z"
/>
<path fill="#f69320" d="
  M 92.08 37.97
  L 67.90 38.06
  A 0.34 0.34 0.0 0 1 67.66 37.48
  L 80.43 24.69
  A 0.34 0.34 0.0 0 1 80.92 24.71
  L 92.33 37.41
  A 0.34 0.34 0.0 0 1 92.08 37.97
  Z"
/>
<path fill="#f69320" d="
  M 104.24 37.54
  L 116.35 24.83
  A 0.34 0.34 0.0 0 1 116.84 24.83
  L 129.17 37.32
  A 0.34 0.34 0.0 0 1 128.93 37.90
  L 104.49 38.11
  A 0.34 0.34 0.0 0 1 104.24 37.54
  Z"
/>
<path fill="#f69320" d="
  M 42.85 37.59
  L 49.09 30.27
  A 0.33 0.33 0.0 0 1 49.58 30.26
  L 56.09 37.34
  A 0.33 0.33 0.0 0 1 55.86 37.89
  L 43.11 38.14
  A 0.33 0.33 0.0 0 1 42.85 37.59
  Z"
/>
<path fill="#f69320" d="
  M 143.02 37.48
  L 149.46 30.27
  A 0.30 0.30 0.0 0 1 149.91 30.27
  L 156.31 37.52
  A 0.30 0.30 0.0 0 1 156.08 38.02
  L 143.24 37.98
  A 0.30 0.30 0.0 0 1 143.02 37.48
  Z"
/>
<path fill="#159446" d="
  M 104.52 75.74
  L 116.79 54.56
  A 0.46 0.46 0.0 0 0 116.72 54.01
  L 104.47 41.24
  A 0.46 0.46 0.0 0 1 104.80 40.46
  L 129.28 40.66
  A 0.46 0.46 0.0 0 1 129.60 41.44
  L 117.58 53.87
  A 0.46 0.46 0.0 0 0 117.51 54.43
  L 130.51 75.80
  A 0.46 0.46 0.0 0 1 130.44 76.36
  L 117.83 89.36
  A 0.46 0.46 0.0 0 1 117.17 89.36
  L 104.59 76.29
  A 0.46 0.46 0.0 0 1 104.52 75.74
  Z
  M 108.68 75.04
  A 0.33 0.33 0.0 0 0 108.96 75.54
  L 125.67 75.46
  A 0.33 0.33 0.0 0 0 125.95 74.95
  L 117.52 61.95
  A 0.33 0.33 0.0 0 0 116.97 61.96
  L 108.68 75.04
  Z"
/>
<path fill="#f69320" d="
  M 79.09 54.71
  L 66.96 42.58
  A 0.33 0.33 0.0 0 1 67.19 42.02
  L 92.14 41.95
  A 0.33 0.33 0.0 0 1 92.37 42.52
  L 79.55 54.72
  A 0.33 0.33 0.0 0 1 79.09 54.71
  Z"
/>
<path fill="#f69320" d="
  M 142.67 42.63
  Q 142.02 42.02 142.91 42.01
  C 148.32 41.94 158.67 40.02 160.59 47.11
  A 1.47 1.46 50.8 0 1 160.49 48.13
  Q 158.86 51.56 155.83 53.87
  A 0.75 0.75 0.0 0 1 154.88 53.83
  L 142.67 42.63
  Z"
/>
<path fill="#f69320" d="
  M 37.08 48.70
  C 35.90 45.92 41.12 42.88 43.08 42.83
  Q 48.99 42.66 54.78 42.78
  A 0.24 0.23 22.6 0 1 54.95 43.18
  L 42.96 55.31
  Q 42.66 55.61 42.34 55.34
  Q 38.60 52.28 37.08 48.70
  Z"
/>
<path fill="#159446" d="
  M 8.01 64.02
  C 10.79 63.82 15.35 63.15 17.58 65.16
  C 19.72 67.09 19.50 70.74 17.13 72.37
  C 14.72 74.01 7.26 73.25 4.22 73.25
  A 0.72 0.72 0.0 0 1 3.50 72.53
  L 3.50 71.00
  Q 3.50 70.25 4.25 70.25
  L 14.75 70.25
  A 1.23 1.22 -83.4 0 0 15.94 69.30
  Q 16.23 68.00 15.46 67.28
  C 13.85 65.76 7.81 67.57 5.24 65.98
  C 2.88 64.52 2.78 60.18 5.14 58.46
  C 7.23 56.95 14.32 57.45 16.95 57.54
  Q 17.67 57.56 17.61 58.27
  L 17.48 59.82
  Q 17.44 60.32 16.93 60.33
  L 7.87 60.48
  A 1.29 1.28 21.1 0 0 6.96 60.88
  Q 5.35 62.58 7.25 63.82
  A 1.24 1.20 58.9 0 0 8.01 64.02
  Z"
/>
<rect fill="#159446" x="-1.50" y="-7.88" transform="translate(34.00,65.38) rotate(-0.1)" width="3.00" height="15.76" rx="0.97"/>
<path fill="#159446" d="
  M 57.75 61.13
  L 57.75 72.49
  A 0.63 0.63 0.0 0 1 57.17 73.12
  L 55.43 73.27
  A 0.63 0.63 0.0 0 1 54.75 72.64
  L 54.75 61.13
  A 0.63 0.63 0.0 0 0 54.12 60.50
  L 49.16 60.50
  A 0.63 0.63 0.0 0 1 48.53 59.88
  L 48.49 58.26
  A 0.63 0.63 0.0 0 1 49.12 57.61
  L 63.39 57.45
  A 0.63 0.63 0.0 0 1 64.02 58.09
  L 63.98 59.89
  A 0.63 0.63 0.0 0 1 63.35 60.50
  L 58.38 60.50
  A 0.63 0.63 0.0 0 0 57.75 61.13
  Z"
/>
<path fill="#159446" d="
  M 81.37 60.50
  L 76.52 60.50
  A 0.63 0.63 0.0 0 1 75.89 59.94
  L 75.70 58.33
  A 0.63 0.63 0.0 0 1 76.32 57.62
  L 90.46 57.45
  A 0.63 0.63 0.0 0 1 91.10 58.00
  L 91.31 59.84
  A 0.63 0.63 0.0 0 1 90.67 60.55
  L 85.65 60.39
  A 0.63 0.63 0.0 0 0 85.00 61.02
  L 85.00 72.66
  A 0.63 0.63 0.0 0 1 84.31 73.28
  L 82.57 73.12
  A 0.63 0.63 0.0 0 1 82.00 72.49
  L 82.00 61.13
  A 0.63 0.63 0.0 0 0 81.37 60.50
  Z"
/>
<path fill="#159446" d="
  M 139.25 61.00
  L 139.25 72.48
  Q 139.25 73.14 138.59 73.18
  L 137.16 73.27
  Q 136.50 73.31 136.50 72.65
  L 136.50 58.49
  A 0.95 0.95 0.0 0 1 137.43 57.54
  Q 142.89 57.39 148.44 57.60
  Q 151.13 57.69 151.71 59.86
  Q 153.38 66.02 147.76 68.23
  Q 147.15 68.47 147.66 68.89
  L 151.94 72.37
  A 0.46 0.46 0.0 0 1 151.75 73.18
  C 147.47 74.07 144.53 69.43 140.79 67.59
  A 1.22 1.22 0.0 0 1 141.28 65.28
  C 144.44 65.16 149.16 66.62 149.30 61.56
  Q 149.33 60.50 148.27 60.50
  L 139.75 60.50
  Q 139.25 60.50 139.25 61.00
  Z"
/>
<rect fill="#159446" x="166.49" y="57.51" width="2.76" height="15.74" rx="0.75"/>
<path fill="#159446" d="
  M 189.49 63.74
  C 194.32 63.25 197.92 68.79 193.93 72.14
  C 191.64 74.06 183.62 73.26 180.57 73.24
  Q 179.89 73.24 179.89 72.56
  L 179.89 70.93
  Q 179.89 70.25 180.57 70.25
  L 191.03 70.25
  A 1.50 1.49 -82.4 0 0 192.47 69.14
  Q 192.81 67.82 191.82 67.18
  C 189.65 65.78 184.77 67.48 182.09 66.21
  C 179.32 64.91 178.96 60.27 181.57 58.46
  C 183.78 56.92 190.89 57.44 193.63 57.55
  Q 194.28 57.57 194.25 58.21
  L 194.19 59.95
  Q 194.17 60.50 193.62 60.50
  L 183.81 60.50
  A 0.85 0.85 0.0 0 0 182.97 61.22
  L 182.74 62.91
  Q 182.63 63.65 183.38 63.72
  Q 186.47 64.04 189.49 63.74
  Z"
/>
<path fill="#f69320" d="
  M 42.69 87.56
  Q 35.99 81.30 31.28 76.04
  Q 30.80 75.50 31.53 75.50
  L 57.71 75.50
  A 0.91 0.91 0.0 0 1 58.34 77.06
  C 54.66 80.60 50.67 83.99 47.11 87.66
  Q 45.05 89.77 42.69 87.56
  Z"
/>
<path fill="#f69320" d="
  M 93.82 76.17
  L 81.33 88.12
  A 0.33 0.33 0.0 0 1 80.87 88.12
  L 68.59 75.95
  A 0.33 0.33 0.0 0 1 68.82 75.39
  L 93.59 75.60
  A 0.33 0.33 0.0 0 1 93.82 76.17
  Z"
/>
<path fill="#f69320" d="
  M 156.30 87.68
  L 145.36 76.53
  A 0.46 0.46 0.0 0 1 145.68 75.75
  L 169.33 75.75
  Q 170.37 75.75 169.64 76.49
  L 158.65 87.68
  A 1.65 1.65 0.0 0 1 156.30 87.68
  Z"
/>
<path fill="#f69320" d="
  M 140.17 76.96
  L 153.95 90.98
  A 0.39 0.39 0.0 0 1 153.95 91.52
  L 140.17 105.54
  A 0.39 0.39 0.0 0 1 139.50 105.27
  L 139.50 77.23
  A 0.39 0.39 0.0 0 1 140.17 76.96
  Z"
/>
<path fill="#f69320" d="
  M 135.45 105.67
  L 122.02 91.86
  A 0.48 0.48 0.0 0 1 122.02 91.19
  L 135.40 77.33
  A 0.48 0.48 0.0 0 1 136.23 77.67
  L 136.28 105.34
  A 0.48 0.48 0.0 0 1 135.45 105.67
  Z"
/>
<path fill="#f69320" d="
  M 65.45 78.95
  L 78.22 90.97
  A 0.32 0.32 0.0 0 1 78.22 91.43
  L 65.54 103.54
  A 0.32 0.32 0.0 0 1 65.00 103.31
  L 64.91 79.18
  A 0.32 0.32 0.0 0 1 65.45 78.95
  Z"
/>
<path fill="#f69320" d="
  M 60.10 105.43
  L 47.83 92.43
  A 0.35 0.35 0.0 0 1 47.83 91.95
  L 60.20 79.04
  A 0.35 0.35 0.0 0 1 60.80 79.28
  L 60.71 105.19
  A 0.35 0.35 0.0 0 1 60.10 105.43
  Z"
/>
<path fill="#f69320" d="
  M 95.28 102.99
  L 84.26 91.72
  A 0.42 0.42 0.0 0 1 84.26 91.14
  L 95.28 79.87
  A 0.42 0.42 0.0 0 1 96.00 80.16
  L 96.00 102.70
  A 0.42 0.42 0.0 0 1 95.28 102.99
  Z"
/>
<path fill="#f69320" d="
  M 101.53 79.79
  L 113.38 91.20
  A 0.32 0.32 0.0 0 1 113.38 91.65
  L 101.78 103.30
  A 0.32 0.32 0.0 0 1 101.23 103.08
  L 100.99 80.03
  A 0.32 0.32 0.0 0 1 101.53 79.79
  Z"
/>
<path fill="#f69320" d="
  M 161.36 91.23
  L 168.62 83.63
  A 0.47 0.47 0.0 0 1 169.42 84.05
  L 166.80 96.65
  A 0.47 0.47 0.0 0 1 166.00 96.87
  L 161.35 91.87
  A 0.47 0.47 0.0 0 1 161.36 91.23
  Z"
/>
<path fill="#f69320" d="
  M 34.39 83.74
  L 41.73 91.68
  A 0.86 0.86 0.0 0 1 41.73 92.84
  L 37.90 96.98
  A 0.86 0.86 0.0 0 1 36.45 96.64
  L 32.94 84.56
  A 0.86 0.86 0.0 0 1 34.39 83.74
  Z"
/>
<path fill="#f69320" d="
  M 68.95 106.93
  L 81.42 94.41
  A 0.32 0.32 0.0 0 1 81.87 94.42
  L 94.30 106.97
  A 0.32 0.32 0.0 0 1 94.07 107.52
  L 69.18 107.47
  A 0.32 0.32 0.0 0 1 68.95 106.93
  Z"
/>
<path fill="#f69320" d="
  M 104.22 106.88
  L 116.64 94.42
  A 0.34 0.34 0.0 0 1 117.12 94.42
  L 129.45 106.97
  A 0.34 0.34 0.0 0 1 129.20 107.55
  L 104.46 107.46
  A 0.34 0.34 0.0 0 1 104.22 106.88
  Z"
/>
<path fill="#f69320" d="
  M 44.83 95.24
  L 57.60 107.32
  Q 58.20 107.88 57.37 107.92
  C 53.47 108.10 42.77 109.30 40.62 105.59
  C 37.73 100.61 40.57 98.38 43.94 95.23
  Q 44.39 94.82 44.83 95.24
  Z"
/>
<path fill="#f69320" d="
  M 157.81 95.33
  Q 162.62 98.02 162.22 103.12
  Q 161.84 107.86 156.76 107.92
  Q 150.76 107.99 144.75 108.02
  A 0.48 0.48 0.0 0 1 144.42 107.19
  L 156.96 95.44
  Q 157.34 95.08 157.81 95.33
  Z"
/>
<path fill="#f69320" d="
  M 141.91 111.27
  L 153.85 111.20
  A 0.38 0.38 0.0 0 1 154.14 111.83
  L 148.55 118.05
  A 0.38 0.38 0.0 0 1 148.01 118.07
  L 141.65 111.93
  A 0.38 0.38 0.0 0 1 141.91 111.27
  Z"
/>
<path fill="#f69320" d="
  M 57.74 112.08
  L 51.67 118.43
  A 0.33 0.33 0.0 0 1 51.19 118.42
  L 45.17 112.03
  A 0.33 0.33 0.0 0 1 45.41 111.48
  L 57.51 111.52
  A 0.33 0.33 0.0 0 1 57.74 112.08
  Z"
/>
<path fill="#f69320" d="
  M 93.32 112.31
  L 79.48 126.13
  A 0.33 0.33 0.0 0 1 79.02 126.13
  L 65.18 112.31
  A 0.33 0.33 0.0 0 1 65.42 111.75
  L 93.08 111.75
  A 0.33 0.33 0.0 0 1 93.32 112.31
  Z"
/>
<path fill="#f69320" d="
  M 103.98 111.77
  L 131.66 111.71
  A 0.30 0.30 0.0 0 1 131.87 112.22
  L 118.05 126.21
  A 0.30 0.30 0.0 0 1 117.63 126.22
  L 103.77 112.28
  A 0.30 0.30 0.0 0 1 103.98 111.77
  Z"
/>
<path fill="#f69320" d="
  M 66.68 131.57
  C 62.20 128.32 62.16 118.83 62.13 113.90
  A 0.46 0.46 0.0 0 1 62.94 113.59
  L 75.92 128.48
  Q 76.26 128.87 76.02 129.33
  Q 72.59 135.85 66.68 131.57
  Z"
/>
<path fill="#f69320" d="
  M 123.56 128.84
  L 137.51 115.06
  A 0.48 0.48 0.0 0 1 138.32 115.42
  C 138.14 120.18 137.30 127.79 133.49 131.86
  C 129.91 135.69 125.30 134.48 123.37 129.76
  Q 123.16 129.23 123.56 128.84
  Z"
/>
<path fill="#f69320" d="
  M 58.45 128.38
  L 52.14 123.46
  A 0.32 0.32 0.0 0 1 52.13 122.97
  L 58.10 117.64
  A 0.32 0.32 0.0 0 1 58.63 117.87
  L 58.97 128.12
  A 0.32 0.32 0.0 0 1 58.45 128.38
  Z"
/>
<path fill="#f69320" d="
  M 83.26 131.11
  Q 83.02 130.96 82.84 130.71
  Q 82.57 130.34 82.89 130.02
  L 95.14 117.59
  A 0.38 0.38 0.0 0 1 95.79 117.85
  L 95.73 139.29
  A 0.62 0.62 0.0 0 1 94.91 139.88
  C 90.08 138.28 87.34 133.74 83.26 131.11
  Z"
/>
<path fill="#f69320" d="
  M 102.40 139.68
  L 102.22 118.26
  A 0.50 0.49 22.8 0 1 103.07 117.92
  L 115.17 130.37
  Q 115.56 130.78 115.14 131.16
  C 112.05 133.95 107.12 139.40 103.10 140.24
  Q 102.41 140.38 102.40 139.68
  Z"
/>
<path fill="#f69320" d="
  M 147.00 124.46
  L 140.99 128.59
  A 0.31 0.31 0.0 0 1 140.50 128.33
  L 140.50 117.98
  A 0.31 0.31 0.0 0 1 141.03 117.76
  L 147.05 123.99
  A 0.31 0.31 0.0 0 1 147.00 124.46
  Z"
/>
</svg>
