<?xml version="1.0" standalone="no"?>
<!DOCTYPE svg PUBLIC "-//W3C//DTD SVG 20010904//EN"
 "http://www.w3.org/TR/2001/REC-SVG-20010904/DTD/svg10.dtd">
<svg version="1.0" xmlns="http://www.w3.org/2000/svg"
 width="908.000000pt" height="908.000000pt" viewBox="0 0 908.000000 908.000000"
 preserveAspectRatio="xMidYMid meet">
<metadata>
Created by potrace 1.14, written by Peter Selinger 2001-2017
</metadata>
<g transform="translate(0.000000,908.000000) scale(0.100000,-0.100000)"
fill="#000000" stroke="none">
<path d="M6417 9074 c-1 -1 -40 -5 -87 -8 -146 -12 -215 -20 -290 -36 -25 -5
-58 -12 -75 -14 -49 -8 -86 -16 -170 -37 -44 -11 -88 -21 -97 -22 -10 -1 -18
-4 -18 -7 0 -3 -8 -6 -17 -7 -24 -2 -191 -54 -301 -94 -48 -17 -103 -36 -122
-42 -19 -6 -38 -16 -42 -22 -4 -5 -8 -7 -8 -3 0 3 -37 -10 -82 -29 -46 -19
-89 -35 -95 -36 -7 0 -13 -4 -13 -9 0 -4 -8 -8 -18 -8 -10 0 -29 -8 -42 -17
-14 -10 -26 -17 -27 -16 -14 11 -585 -278 -703 -355 -14 -9 -27 -17 -30 -17
-9 -1 -276 -166 -297 -185 -7 -5 -15 -10 -18 -10 -10 0 -160 -103 -163 -112
-2 -4 -10 -8 -18 -8 -8 0 -14 -4 -14 -8 0 -5 -11 -14 -25 -20 -14 -7 -31 -17
-38 -22 -7 -6 -37 -28 -67 -50 -30 -22 -64 -47 -75 -55 -11 -9 -31 -24 -43
-33 -43 -31 -266 -204 -298 -231 -17 -14 -52 -44 -79 -66 -305 -254 -686 -636
-869 -873 -11 -15 -25 -32 -31 -38 -5 -6 -19 -23 -30 -38 -11 -15 -46 -61 -77
-102 -32 -42 -67 -92 -80 -112 -12 -20 -24 -39 -28 -42 -29 -26 -186 -293
-265 -450 -21 -41 -41 -82 -46 -90 -5 -8 -12 -22 -15 -30 -4 -8 -20 -46 -36
-85 -16 -38 -33 -79 -38 -90 -14 -29 -70 -187 -75 -210 -3 -11 -9 -31 -15 -45
-9 -23 -46 -159 -55 -205 -15 -69 -38 -183 -40 -200 -11 -83 -17 -123 -21
-145 -21 -124 -21 -527 0 -640 5 -23 12 -76 21 -145 2 -16 6 -41 9 -55 4 -14
8 -37 11 -52 3 -15 9 -38 14 -51 6 -14 8 -27 5 -30 -3 -2 0 -15 5 -28 5 -13
26 -80 47 -149 21 -69 43 -128 49 -132 5 -4 6 -8 1 -8 -4 0 -1 -11 8 -25 9
-14 14 -25 11 -25 -4 0 0 -12 8 -28 8 -15 30 -58 48 -97 19 -38 40 -78 49 -89
13 -17 10 -16 -29 4 -49 25 -148 88 -169 108 -7 6 -17 12 -21 12 -8 0 -195
182 -222 216 -46 59 -99 134 -99 140 0 4 -6 15 -14 23 -26 29 -144 275 -156
326 -3 14 -10 35 -21 65 -11 32 -46 176 -53 215 -3 17 -7 44 -10 60 -8 43 -16
119 -23 205 -3 41 -6 76 -8 78 -1 1 -9 -19 -18 -45 -22 -66 -38 -112 -53 -153
-18 -50 -44 -132 -49 -155 -3 -11 -14 -51 -25 -90 -12 -38 -23 -81 -26 -95 -3
-14 -11 -47 -19 -75 -8 -27 -17 -65 -20 -84 -3 -19 -8 -37 -10 -40 -2 -4 -6
-26 -10 -51 -4 -25 -8 -47 -10 -50 -1 -3 -6 -25 -9 -50 -3 -25 -8 -56 -11 -70
-2 -14 -7 -36 -10 -50 -8 -46 -21 -147 -32 -265 -10 -112 -10 -506 1 -590 5
-38 10 -83 12 -100 3 -28 18 -120 28 -173 3 -12 7 -26 10 -30 3 -5 8 -24 11
-43 8 -45 27 -111 35 -124 4 -5 10 -23 14 -40 25 -102 149 -334 249 -465 69
-90 230 -249 307 -302 78 -55 162 -108 169 -108 5 0 11 -3 13 -8 2 -4 37 -23
78 -43 66 -32 97 -46 175 -80 72 -30 236 -80 347 -105 10 -2 28 -6 41 -9 12
-3 35 -8 51 -10 15 -2 36 -7 46 -10 20 -6 64 -14 130 -21 25 -3 61 -7 80 -9
19 -3 68 -7 108 -10 40 -2 78 -7 83 -10 5 -4 9 -1 9 5 0 6 5 8 12 3 17 -10
188 -10 188 0 0 4 5 5 11 1 12 -7 89 -7 154 0 22 3 65 8 95 11 30 3 69 8 85
10 17 3 46 7 65 10 36 5 48 7 115 20 22 5 47 9 55 10 8 0 24 4 35 8 11 3 33 8
48 11 16 3 43 10 60 15 101 32 98 26 -45 -112 -130 -125 -208 -197 -343 -317
-33 -29 -81 -71 -106 -94 -25 -22 -57 -50 -70 -61 -13 -11 -49 -40 -79 -65
-30 -25 -57 -47 -60 -50 -3 -3 -39 -33 -80 -66 -41 -32 -83 -66 -93 -74 -11
-8 -24 -20 -31 -25 -6 -6 -29 -24 -51 -40 -58 -43 -76 -58 -97 -78 -10 -9 -20
-17 -23 -17 -4 0 -122 -88 -167 -125 -9 -7 -26 -18 -37 -25 -33 -17 -25 -30
12 -20 17 5 48 12 67 15 19 3 49 10 65 15 17 5 44 11 60 14 17 3 57 12 91 20
34 8 72 17 85 20 13 3 33 7 44 10 119 30 194 48 215 52 14 3 54 14 90 24 36
10 76 21 90 24 14 3 50 12 80 20 107 30 336 95 405 116 39 11 78 22 87 25 29
6 278 84 343 106 33 12 67 22 75 23 8 1 24 7 35 13 11 6 22 11 25 11 7 -1 52
12 75 22 25 10 175 60 195 65 8 2 17 4 20 5 3 1 8 2 13 1 4 0 7 4 7 11 0 6 2
9 5 6 3 -3 47 10 98 29 51 19 99 35 107 35 8 0 20 5 26 9 12 10 167 68 202 76
12 3 22 9 22 14 0 5 3 8 8 7 14 -4 134 42 205 78 16 8 33 12 38 8 5 -3 9 -1 9
4 0 6 12 13 26 16 14 4 45 15 68 26 22 10 91 40 151 65 130 56 214 94 310 141
39 19 73 34 77 34 3 0 34 16 67 34 34 19 61 33 61 30 0 -2 33 13 73 35 39 21
116 62 171 90 54 29 114 62 135 73 20 12 61 34 91 51 30 17 66 37 80 46 55 35
66 41 80 48 8 3 41 24 72 45 31 21 60 38 63 38 8 0 69 44 73 53 2 4 8 7 13 7
15 0 276 182 352 245 9 8 20 15 23 15 5 0 9 3 55 43 14 12 48 40 75 62 264
218 508 474 731 770 43 56 71 97 137 195 42 63 80 120 84 125 4 6 11 17 15 25
3 8 20 38 37 65 16 28 40 70 52 95 13 25 26 47 29 50 6 5 72 142 116 240 84
188 176 476 207 650 3 14 5 25 6 25 1 0 3 9 5 20 1 11 6 37 9 58 3 20 8 54 11
75 3 20 7 53 10 72 24 172 24 604 0 730 -2 9 -6 43 -10 75 -4 33 -9 69 -11 80
-2 11 -7 34 -9 50 -39 225 -110 488 -200 740 -25 72 -47 135 -49 140 -1 6 -9
26 -18 46 -9 20 -19 47 -23 60 -4 13 -17 47 -30 74 -12 28 -37 89 -56 137 -19
48 -39 88 -45 88 -6 0 -31 -19 -55 -42 -157 -148 -347 -279 -534 -369 -38 -18
-74 -34 -80 -35 -5 -1 -34 -11 -62 -23 -29 -11 -53 -18 -53 -16 0 3 -8 1 -18
-4 -11 -6 -30 -12 -43 -15 -88 -20 -122 -25 -130 -20 -5 3 -9 1 -9 -4 0 -10
-232 -8 -300 2 -58 9 -207 59 -252 84 -19 11 -46 26 -59 34 -119 67 -241 195
-312 327 -43 79 -102 245 -112 312 -4 24 -8 46 -10 49 -2 3 -7 37 -11 75 -14
131 -8 418 12 510 9 45 15 82 20 125 3 25 10 51 16 58 6 6 8 12 5 12 -3 0 4
33 14 73 11 39 21 79 24 87 31 119 155 425 180 442 5 4 6 8 1 8 -5 0 -2 8 6
18 8 9 18 26 22 37 8 23 110 188 140 227 12 14 32 41 46 60 50 66 206 215 260
248 21 13 7 22 -35 24 -19 0 -35 3 -35 6 0 3 -15 6 -32 6 -94 4 -319 10 -321
8z"/>
</g>
</svg>
