<svg width="705" height="227" viewBox="0 0 705 227" fill="none" xmlns="http://www.w3.org/2000/svg">
<path d="M318.667 95.2727C318.224 91.5303 316.427 88.625 313.275 86.5568C310.124 84.4886 306.258 83.4545 301.679 83.4545C298.33 83.4545 295.4 83.9962 292.889 85.0795C290.402 86.1629 288.457 87.6525 287.054 89.5483C285.675 91.4441 284.985 93.5985 284.985 96.0114C284.985 98.0303 285.466 99.7661 286.426 101.219C287.411 102.647 288.666 103.841 290.193 104.801C291.719 105.737 293.32 106.512 294.994 107.128C296.668 107.719 298.207 108.199 299.61 108.568L307.292 110.636C309.262 111.153 311.453 111.867 313.866 112.778C316.304 113.689 318.63 114.933 320.846 116.509C323.087 118.06 324.933 120.054 326.386 122.491C327.839 124.929 328.565 127.92 328.565 131.466C328.565 135.553 327.494 139.246 325.352 142.545C323.234 145.845 320.132 148.467 316.045 150.412C311.983 152.357 307.046 153.33 301.235 153.33C295.819 153.33 291.128 152.455 287.164 150.707C283.225 148.959 280.123 146.522 277.858 143.395C275.617 140.268 274.349 136.636 274.054 132.5H283.508C283.754 135.356 284.715 137.72 286.389 139.591C288.088 141.437 290.23 142.816 292.815 143.727C295.425 144.614 298.232 145.057 301.235 145.057C304.732 145.057 307.871 144.491 310.653 143.358C313.435 142.201 315.639 140.6 317.264 138.557C318.889 136.489 319.701 134.076 319.701 131.318C319.701 128.807 319 126.763 317.596 125.188C316.193 123.612 314.346 122.331 312.056 121.347C309.767 120.362 307.292 119.5 304.633 118.761L295.326 116.102C289.417 114.403 284.739 111.978 281.292 108.827C277.845 105.675 276.122 101.551 276.122 96.4545C276.122 92.2197 277.267 88.5265 279.556 85.375C281.871 82.1989 284.973 79.7367 288.863 77.9886C292.778 76.2159 297.148 75.3295 301.974 75.3295C306.849 75.3295 311.182 76.2036 314.974 77.9517C318.766 79.6752 321.77 82.0388 323.985 85.0426C326.226 88.0464 327.408 91.4564 327.531 95.2727H318.667ZM407.442 114.182C407.442 122.159 406.002 129.053 403.121 134.864C400.24 140.674 396.289 145.155 391.266 148.307C386.243 151.458 380.507 153.034 374.056 153.034C367.605 153.034 361.868 151.458 356.846 148.307C351.823 145.155 347.871 140.674 344.99 134.864C342.11 129.053 340.669 122.159 340.669 114.182C340.669 106.205 342.11 99.3106 344.99 93.5C347.871 87.6894 351.823 83.2083 356.846 80.0568C361.868 76.9053 367.605 75.3295 374.056 75.3295C380.507 75.3295 386.243 76.9053 391.266 80.0568C396.289 83.2083 400.24 87.6894 403.121 93.5C406.002 99.3106 407.442 106.205 407.442 114.182ZM398.578 114.182C398.578 107.633 397.483 102.105 395.292 97.5994C393.125 93.0938 390.183 89.6837 386.465 87.3693C382.772 85.0549 378.635 83.8977 374.056 83.8977C369.476 83.8977 365.328 85.0549 361.61 87.3693C357.917 89.6837 354.974 93.0938 352.783 97.5994C350.616 102.105 349.533 107.633 349.533 114.182C349.533 120.731 350.616 126.259 352.783 130.764C354.974 135.27 357.917 138.68 361.61 140.994C365.328 143.309 369.476 144.466 374.056 144.466C378.635 144.466 382.772 143.309 386.465 140.994C390.183 138.68 393.125 135.27 395.292 130.764C397.483 126.259 398.578 120.731 398.578 114.182ZM422.843 152V76.3636H432.002V143.875H467.161V152H422.843ZM489.218 152H479.616L507.389 76.3636H516.843L544.616 152H535.014L512.412 88.3295H511.821L489.218 152ZM492.764 122.455H531.468V130.58H492.764V122.455ZM565.556 76.3636V152H556.397V76.3636H565.556ZM583.921 152V76.3636H609.478C615.387 76.3636 620.237 77.3731 624.029 79.392C627.82 81.3864 630.627 84.1316 632.449 87.6278C634.271 91.1241 635.182 95.1004 635.182 99.5568C635.182 104.013 634.271 107.965 632.449 111.412C630.627 114.859 627.833 117.567 624.066 119.537C620.299 121.482 615.485 122.455 609.625 122.455H588.944V114.182H609.33C613.368 114.182 616.618 113.591 619.08 112.409C621.567 111.227 623.364 109.553 624.472 107.386C625.605 105.195 626.171 102.585 626.171 99.5568C626.171 96.5284 625.605 93.8816 624.472 91.6165C623.339 89.3513 621.53 87.6032 619.043 86.3722C616.556 85.1165 613.269 84.4886 609.182 84.4886H593.08V152H583.921ZM619.523 118.023L638.137 152H627.5L609.182 118.023H619.523ZM650.444 152V76.3636H696.092V84.4886H659.603V110.045H693.728V118.17H659.603V143.875H696.683V152H650.444Z" fill="white"/>
<mask id="mask0_5_3" style="mask-type:luminance" maskUnits="userSpaceOnUse" x="0" y="0" width="161" height="201">
<path d="M73.4171 33.0045C-5.72591 92.9825 29.4531 147.785 29.4531 147.785C7.9351 136.966 8.78305 110.746 8.78305 110.746C8.78305 110.746 -23.491 187.569 41.263 198.988C53.354 201.12 65.2131 200.089 76.5211 196.883C89.7601 183.669 103.085 167.411 109.342 150.854C118.772 125.926 102.071 115.079 82.4811 115.966C80.7091 116.175 79.002 116.338 77.367 116.457C57.748 117.898 47.6041 112.989 50.5871 96.0715C55.0391 70.8245 112.07 3.24747 160.606 0.834473C157.863 0.350479 154.996 0.12146 152.025 0.12146C127.541 0.122467 96.2291 15.7115 73.4171 33.0045Z" fill="white"/>
</mask>
<g mask="url(#mask0_5_3)">
<path d="M329.054 1342.77L955.307 -246.907L-1075.05 -1046.77L-1701.31 542.904L329.054 1342.77Z" fill="url(#paint0_linear_5_3)"/>
</g>
<mask id="mask1_5_3" style="mask-type:luminance" maskUnits="userSpaceOnUse" x="76" y="108" width="72" height="89">
<path d="M112.807 110.407C101.329 112.986 91.1384 114.971 82.4814 115.968C102.071 115.081 118.773 125.928 109.343 150.856C103.086 167.413 89.7605 183.671 76.5215 196.885C99.2145 190.449 119.709 175.232 135.49 159.141C152.378 139.014 154.424 108.849 125.443 108.851C121.747 108.851 117.545 109.342 112.807 110.407Z" fill="white"/>
</mask>
<g mask="url(#mask1_5_3)">
<path d="M308.643 1363.99L967.246 -235.423L-1054.64 -1067.99L-1713.24 531.425L308.643 1363.99Z" fill="url(#paint1_linear_5_3)"/>
</g>
<mask id="mask2_5_3" style="mask-type:luminance" maskUnits="userSpaceOnUse" x="50" y="0" width="118" height="160">
<path d="M50.5862 96.0726C47.6032 112.991 57.7471 117.9 77.3661 116.459C79.0821 116.208 80.7881 116.045 82.4801 115.968C91.1371 114.971 101.327 112.986 112.805 110.407C154.699 100.992 154.531 136.448 135.489 159.141C153.981 140.285 166.004 120.232 167.516 111.656C170.144 96.7486 152.369 94.0136 141.551 92.3486C126.668 90.0476 107.493 90.1636 102.767 71.2186C97.6611 50.7456 133.43 8.07162 160.605 0.835632C112.069 3.24863 55.0382 70.8256 50.5862 96.0726Z" fill="white"/>
</mask>
<g mask="url(#mask2_5_3)">
<path d="M586.436 720.858L605.48 -391.683L-1332.44 -424.855L-1351.48 687.685L586.436 720.858Z" fill="url(#paint2_linear_5_3)"/>
</g>
<mask id="mask3_5_3" style="mask-type:luminance" maskUnits="userSpaceOnUse" x="40" y="0" width="165" height="227">
<path d="M102.769 71.2174C107.495 90.1624 126.67 90.0464 141.553 92.3474C152.371 94.0124 170.146 96.7474 167.518 111.654C166.006 120.23 153.983 140.283 135.491 159.139C119.71 175.23 99.2146 190.447 76.5216 196.883C58.6696 214.707 40.9746 226.984 40.9746 226.984C40.9746 226.984 139.035 208.007 178.194 164.672C218.056 120.565 202.788 81.9374 192.42 57.4584C182.734 67.0734 167.223 75.8314 153.466 68.5494C130.326 56.2934 143.601 11.4714 160.607 0.834412C133.432 8.0704 97.6626 50.7444 102.769 71.2174Z" fill="white"/>
</mask>
<g mask="url(#mask3_5_3)">
<path d="M29.2467 -1263.66L-1823.31 -78.2637L-775.246 1559.66L1077.31 374.264L29.2467 -1263.66Z" fill="url(#paint3_linear_5_3)"/>
</g>
<defs>
<linearGradient id="paint0_linear_5_3" x1="83.0635" y1="69.8769" x2="29.8535" y2="204.945" gradientUnits="userSpaceOnUse">
<stop stop-color="#03AE5A"/>
<stop offset="0.0988095" stop-color="#03B05C"/>
<stop offset="0.390476" stop-color="#01C46D"/>
<stop offset="0.533333" stop-color="#02CF77"/>
<stop offset="0.609524" stop-color="#1AD378"/>
<stop offset="0.729762" stop-color="#4ADC7A"/>
<stop offset="0.867857" stop-color="#88E67D"/>
<stop offset="1" stop-color="#C7F180"/>
</linearGradient>
<linearGradient id="paint1_linear_5_3" x1="131.583" y1="86.2327" x2="91.9266" y2="182.539" gradientUnits="userSpaceOnUse">
<stop stop-color="#F6911D"/>
<stop offset="1" stop-color="#FFF15F"/>
</linearGradient>
<linearGradient id="paint2_linear_5_3" x1="110.418" y1="17.8708" x2="109.063" y2="96.9957" gradientUnits="userSpaceOnUse">
<stop stop-color="#F6911D"/>
<stop offset="1" stop-color="#FFF15F"/>
</linearGradient>
<linearGradient id="paint3_linear_5_3" x1="81.5695" y1="139.823" x2="188.066" y2="71.6792" gradientUnits="userSpaceOnUse">
<stop stop-color="#03AE5A"/>
<stop offset="0.0988095" stop-color="#03B05C"/>
<stop offset="0.390476" stop-color="#01C46D"/>
<stop offset="0.533333" stop-color="#02CF77"/>
<stop offset="0.609524" stop-color="#1AD378"/>
<stop offset="0.729762" stop-color="#4ADC7A"/>
<stop offset="0.867857" stop-color="#88E67D"/>
<stop offset="1" stop-color="#C7F180"/>
</linearGradient>
</defs>
</svg>
