<svg version="1.1" id="Layer_1" xmlns="http://www.w3.org/2000/svg" xmlns:xlink="http://www.w3.org/1999/xlink" x="0px" y="0px"
	 width="100%" viewBox="0 0 1670 1570" enable-background="new 0 0 1670 1570" xml:space="preserve">
<path fill="#FEFEFD" opacity="1.000000" stroke="none" 
	d="
M1.000000,596.000000 
	C1.000000,397.333374 1.000000,199.166733 1.000000,1.000080 
	C557.666565,1.000053 1114.333130,1.000053 1670.999756,1.000027 
	C1670.999756,524.333069 1670.999756,1047.666138 1670.999878,1570.999512 
	C1114.333618,1570.999634 557.667297,1570.999634 1.000492,1570.999756 
	C1.000000,1246.166626 1.000000,921.333313 1.000000,596.000000 
M1319.864746,481.816223 
	C1320.200684,482.041504 1320.536743,482.266785 1321.177490,483.044403 
	C1347.983521,507.743622 1374.785522,532.447388 1401.597534,557.140259 
	C1416.158813,570.550659 1430.737305,583.942444 1445.727539,597.728516 
	C1455.241699,589.069824 1464.768555,580.774475 1473.866577,572.032654 
	C1487.870239,558.577148 1498.636230,542.958130 1504.567749,524.231995 
	C1506.950195,516.710754 1506.613770,509.793243 1501.335205,503.595947 
	C1493.902588,494.869904 1487.047974,485.515503 1478.734375,477.722626 
	C1472.972168,472.321259 1465.167603,469.098846 1457.846191,464.426788 
	C1457.234375,464.296967 1456.622681,464.167145 1455.368530,463.764984 
	C1454.241455,463.526550 1453.114380,463.288086 1451.286377,462.860077 
	C1449.862671,462.746094 1448.438965,462.632111 1446.373291,462.194550 
	C1445.897217,462.189117 1445.421021,462.183685 1444.168091,461.951508 
	C1430.768799,461.133514 1417.378784,459.912598 1403.967773,459.599091 
	C1387.050537,459.203644 1370.114502,459.417847 1353.189819,459.628265 
	C1344.441040,459.737030 1335.699341,460.405884 1326.332153,460.741577 
	C1325.920044,460.806976 1325.508057,460.872345 1324.845459,460.724518 
	C1324.490967,460.636719 1324.193970,460.719788 1323.030762,460.878204 
	C1318.033081,460.910828 1313.035522,460.943420 1307.300171,460.717133 
	C1304.134277,460.717133 1300.968506,460.717133 1297.802612,460.717133 
	C1297.715698,461.050415 1297.628662,461.383728 1297.541748,461.717010 
	C1298.675171,462.528412 1299.808716,463.339813 1301.168457,464.697906 
	C1302.233032,465.519562 1303.297729,466.341187 1304.658569,467.751160 
	C1305.042969,467.924286 1305.427490,468.097412 1305.724487,468.189667 
	C1305.724487,468.189667 1305.677002,468.298737 1305.805176,468.824127 
	C1306.109619,468.989563 1306.413940,469.154968 1306.936279,469.070953 
	C1306.936279,469.070953 1306.688843,469.291107 1306.832886,469.813507 
	C1307.144165,469.974152 1307.455566,470.134766 1307.856934,470.150299 
	C1307.856934,470.150299 1307.712036,470.240692 1307.861206,470.771423 
	C1308.171631,470.942535 1308.481934,471.113647 1308.868286,471.193665 
	C1308.868286,471.193665 1308.752197,471.169525 1308.909180,471.758331 
	C1309.234375,471.989624 1309.559692,472.220886 1310.201660,472.964172 
	C1311.426025,473.990753 1312.650513,475.017365 1314.129639,476.656158 
	C1315.327026,477.554871 1316.524536,478.453613 1317.862793,479.226166 
	C1317.862793,479.226166 1317.683472,479.286163 1317.814941,479.811432 
	C1318.119263,479.978973 1318.423584,480.146484 1318.860718,480.068481 
	C1318.860718,480.068481 1318.684448,480.284943 1318.815796,480.810303 
	C1319.120117,480.977966 1319.424561,481.145630 1319.825806,481.258820 
	C1319.825806,481.258820 1319.722412,481.217957 1319.864746,481.816223 
M154.169312,471.801910 
	C153.331787,472.494751 152.494278,473.187622 151.019592,474.041382 
	C142.988937,482.649353 134.964127,491.262787 126.926041,499.863800 
	C118.439217,508.944916 118.170097,519.083923 123.015732,529.897888 
	C123.491463,530.959534 123.915100,532.044495 124.364243,533.118103 
	C135.866318,560.612305 158.226532,578.615723 180.160645,597.448792 
	C186.290970,591.857361 192.192596,586.505249 198.060883,581.116882 
	C227.232422,554.331055 256.417969,527.560486 285.550751,500.732544 
	C298.763306,488.565277 311.865051,476.277710 325.643890,463.773438 
	C326.374268,462.985901 327.104614,462.198364 328.240814,460.973206 
	C323.373230,460.973206 319.160980,460.973206 314.035339,460.878510 
	C310.041565,460.908295 306.047760,460.938080 301.809418,460.735199 
	C301.501587,460.798035 301.193756,460.860840 300.280853,460.779022 
	C299.868805,460.793274 299.456757,460.807526 298.340179,460.415192 
	C295.186401,460.344604 292.032898,460.230225 288.878815,460.210266 
	C260.648590,460.031738 232.415161,459.570587 204.189621,459.862946 
	C194.117981,459.967255 184.065353,461.908722 173.306183,462.961426 
	C172.204819,463.304932 171.103455,463.648438 169.318604,463.949036 
	C168.726730,464.254425 168.134857,464.559814 166.834045,464.869141 
	C164.576630,465.992279 162.319214,467.115417 159.399338,468.289398 
	C157.846939,469.441162 156.294540,470.592957 154.832397,471.830170 
	C154.832397,471.830170 154.826859,471.706024 154.169312,471.801910 
M377.413422,1415.855103 
	C377.674347,1414.305542 378.160034,1412.756226 378.162720,1411.206299 
	C378.208008,1385.060669 378.191254,1358.915039 378.192413,1332.769409 
	C378.193024,1319.113770 378.236206,1305.457764 378.141296,1291.802856 
	C378.133667,1290.704102 377.201141,1289.611694 376.061829,1288.770752 
	C351.422424,1313.616211 326.783020,1338.461548 301.857971,1363.594971 
	C303.871979,1365.124756 305.142578,1366.165527 306.487366,1367.099487 
	C317.821381,1374.971191 329.144409,1382.859253 340.519379,1390.671631 
	C352.570343,1398.948120 364.674591,1407.146851 377.413422,1415.855103 
M347.974670,1244.984985 
	C348.047302,1244.835327 348.166443,1244.688721 348.176453,1244.534912 
	C348.183289,1244.429321 348.045380,1244.222412 347.960602,1244.216309 
	C346.485168,1244.106445 345.007965,1243.941895 343.531097,1243.941528 
	C296.452667,1243.927490 249.374252,1243.929077 202.295822,1243.933838 
	C200.967102,1243.933960 199.638367,1243.995239 198.309647,1244.028076 
	C198.372513,1244.473633 198.435394,1244.919189 198.750381,1246.002075 
	C221.690048,1271.567505 244.629700,1297.133057 267.655945,1322.795044 
	C269.108154,1321.488647 269.863739,1320.849487 270.574402,1320.163818 
	C287.342072,1303.985840 304.141876,1287.840820 320.853851,1271.605469 
	C329.792053,1262.922119 338.577271,1254.081543 347.974670,1244.984985 
M1292.125122,1245.697754 
	C1318.447388,1271.314331 1344.769531,1296.931030 1371.278198,1322.729126 
	C1372.545532,1321.559692 1373.571533,1320.751099 1374.434937,1319.795776 
	C1390.264282,1302.279785 1406.106567,1284.775024 1421.871948,1267.201660 
	C1428.406494,1259.917847 1434.767822,1252.478760 1441.632568,1244.505005 
	C1434.521729,1244.313599 1427.411255,1243.965820 1420.300171,1243.956665 
	C1378.988037,1243.903687 1337.675903,1243.918213 1296.363892,1243.979248 
	C1294.849121,1243.981567 1293.335571,1244.706543 1292.125122,1245.697754 
M345.894714,625.988281 
	C345.894714,688.629333 345.894714,751.270386 345.894714,813.905457 
	C357.342773,813.905457 368.141968,813.905457 379.811646,813.703674 
	C379.939392,812.560730 380.178589,811.417786 380.178925,810.274780 
	C380.198090,749.815857 380.198669,689.356873 380.187500,628.897949 
	C380.187256,627.596191 380.027832,626.294495 379.903320,624.390991 
	C373.917938,624.390991 368.130768,624.298767 362.347961,624.417908 
	C356.953705,624.528992 351.564056,624.864685 345.894714,625.988281 
M1371.007690,814.037964 
	C1380.667725,814.049500 1390.328003,814.099854 1399.987427,814.026855 
	C1401.297119,814.016968 1402.602051,813.388855 1404.128174,812.125610 
	C1404.128174,749.703979 1404.128174,687.282349 1404.128174,624.764282 
	C1392.326294,624.764282 1381.109253,624.764282 1369.710205,624.764282 
	C1369.615723,626.434937 1369.477539,627.741455 1369.477295,629.047974 
	C1369.467651,689.365967 1369.466187,749.684021 1369.498535,810.002014 
	C1369.499146,811.250977 1369.909058,812.499695 1371.007690,814.037964 
M1455.962036,411.029480 
	C1432.426392,382.692169 1408.890747,354.354858 1384.775146,325.319366 
	C1382.893311,327.489716 1381.544067,329.167450 1380.069580,330.726685 
	C1368.527588,342.931885 1356.931885,355.086304 1345.410767,367.311066 
	C1331.506104,382.065125 1317.658447,396.872894 1303.177490,411.970795 
	C1301.821655,412.575806 1300.465698,413.180786 1299.109863,413.785797 
	C1299.633301,414.393555 1300.156738,415.001312 1300.680298,415.609070 
	C1353.477417,415.609070 1406.274536,415.609070 1460.440308,415.609070 
	C1458.428955,413.744263 1457.301392,412.698914 1455.962036,411.029480 
M328.273834,413.227570 
	C300.765442,384.192688 273.257050,355.157837 245.379715,325.733551 
	C242.282852,329.357300 239.670990,332.333038 237.146072,335.380798 
	C215.504364,361.503845 193.878342,387.639893 171.687881,414.104126 
	C173.087601,414.710236 174.486328,415.843658 175.887161,415.846252 
	C225.696030,415.938812 275.505096,415.925842 325.314117,415.924500 
	C326.479279,415.924469 327.644470,415.888397 328.809631,415.869110 
	C328.774811,415.174469 328.739990,414.479828 328.273834,413.227570 
M621.334167,624.466187 
	C559.758789,624.466187 498.183411,624.466187 436.392822,624.466187 
	C436.392822,636.220642 436.392822,647.444641 436.392822,659.142822 
	C438.501801,659.142822 440.293121,659.142822 442.084412,659.142883 
	C463.571198,659.143250 485.059570,659.280457 506.543488,659.033508 
	C511.066132,658.981506 512.042053,660.352417 512.028442,664.665161 
	C511.876068,712.801758 511.920807,760.938965 511.978760,809.075989 
	C511.980682,810.685913 512.682556,812.295044 513.974854,814.066772 
	C524.621399,813.975403 535.267944,813.884033 546.428162,813.198303 
	C546.428162,761.998657 546.428162,710.798950 546.428162,659.143250 
	C549.200684,659.143250 551.165161,659.148987 553.129639,659.142334 
	C575.765137,659.065552 598.400635,658.986816 621.871582,658.638123 
	C621.855774,647.461670 621.839966,636.285156 621.334167,624.466187 
M750.807739,813.698975 
	C750.913635,811.883606 751.111267,810.068237 751.111938,808.252808 
	C751.129639,760.613159 751.126831,712.973572 751.127625,665.333923 
	C751.127625,663.412231 751.127625,661.490479 751.127625,658.989746 
	C776.801880,658.989746 801.677490,658.989746 826.549438,658.989746 
	C826.549438,647.185608 826.549438,635.973572 826.549438,624.789429 
	C764.486328,624.789429 702.811707,624.789429 641.211060,624.789429 
	C641.211060,636.429321 641.211060,647.654053 641.211060,659.305298 
	C666.371521,659.305298 691.131042,659.305298 716.543762,659.305298 
	C716.543762,661.682739 716.543762,663.627441 716.543762,665.572205 
	C716.543701,713.211853 716.537659,760.851440 716.567139,808.491089 
	C716.568237,810.259827 716.915222,812.028381 717.990356,814.065186 
	C728.641907,814.015015 739.293518,813.964844 750.807739,813.698975 
M1202.080811,247.107437 
	C1201.780884,239.465195 1201.269775,231.823883 1201.235840,224.180466 
	C1201.195557,215.119812 1198.122925,207.238541 1192.694580,200.202728 
	C1183.055420,187.709351 1170.004028,180.338913 1155.113770,176.107254 
	C1133.054443,169.838211 1113.247925,173.180939 1095.893921,189.372589 
	C1083.863281,200.597290 1070.858032,210.776001 1058.310913,221.448730 
	C1053.827515,225.262329 1049.411011,229.154388 1044.751465,233.194870 
	C1097.109253,279.911804 1148.909546,326.131287 1200.709839,372.350739 
	C1201.104614,372.125824 1201.499512,371.900879 1201.894287,371.675934 
	C1201.894287,358.765778 1201.894287,345.855591 1202.051025,332.026672 
	C1202.010132,304.030243 1201.969238,276.033844 1202.080811,247.107437 
M67.975952,814.070496 
	C89.137383,814.071289 110.298836,814.096008 131.460220,814.066528 
	C154.617081,814.034241 177.773880,813.951843 201.800156,814.060242 
	C217.982483,812.898804 232.251465,807.048279 242.182785,794.094971 
	C256.901642,774.897400 258.313293,753.249695 248.125137,731.915466 
	C238.314087,711.371033 220.092239,702.316711 197.700104,702.044128 
	C172.880936,701.741943 148.054977,702.032288 123.232704,701.914673 
	C119.442574,701.896729 115.506989,701.578979 111.897125,700.519409 
	C102.349495,697.717041 97.454933,687.678589 99.342781,675.708313 
	C100.905640,665.798706 108.559097,659.177307 118.808357,659.163696 
	C156.292435,659.113892 193.776642,659.142944 231.260788,659.142273 
	C233.005310,659.142212 234.749817,659.142273 236.446350,659.142273 
	C236.446350,647.168396 236.446350,635.944275 236.446350,624.628113 
	C235.452194,624.523560 234.806076,624.396301 234.159943,624.396118 
	C195.009827,624.386169 155.855804,624.071472 116.711693,624.555847 
	C102.872284,624.727051 90.441414,630.063416 80.281487,639.924927 
	C67.489845,652.340881 63.807388,667.806458 64.413536,685.039185 
	C65.220390,707.978210 80.397064,727.651611 102.429039,734.117188 
	C114.192520,737.569336 126.160927,736.870300 138.116455,736.911621 
	C158.774155,736.983032 179.433380,736.808838 200.089706,736.991943 
	C210.451019,737.083801 217.880173,744.427124 219.199127,755.169617 
	C220.606705,766.633972 215.054016,776.194397 205.202774,778.591919 
	C201.858765,779.405701 198.270325,779.442261 194.793076,779.446838 
	C153.977066,779.500977 113.160950,779.481262 72.344864,779.481018 
	C70.398041,779.481018 68.451218,779.481018 66.052917,779.481018 
	C66.052917,791.115540 66.045082,802.070190 66.095139,813.024597 
	C66.096481,813.318115 66.724861,813.608826 67.975952,814.070496 
M1581.831909,814.106018 
	C1619.452148,811.393127 1640.550049,781.444214 1633.230103,744.998657 
	C1628.106445,719.487793 1605.879517,702.077209 1579.676880,701.990784 
	C1554.017456,701.906128 1528.357422,702.009827 1502.697876,701.952820 
	C1494.381714,701.934326 1486.464600,700.384583 1482.226196,692.191467 
	C1475.748535,679.669556 1480.125122,658.683472 1501.337524,658.993042 
	C1538.153076,659.530396 1574.981934,659.142578 1611.805298,659.142700 
	C1613.549438,659.142700 1615.293579,659.142700 1617.008545,659.142700 
	C1617.008545,647.198547 1617.008545,636.073608 1617.008545,624.387634 
	C1614.983032,624.387634 1613.193237,624.387634 1611.403442,624.387634 
	C1574.580078,624.387634 1537.753296,624.117126 1500.936279,624.601379 
	C1492.967773,624.706177 1484.603271,626.412781 1477.167114,629.301941 
	C1455.071167,637.886658 1443.566528,658.709839 1445.045410,685.333374 
	C1446.578125,712.925476 1466.005859,733.870361 1493.488892,736.060059 
	C1509.222290,737.313599 1525.103638,736.775940 1540.919556,736.908691 
	C1554.248291,737.020569 1567.582275,736.744385 1580.907104,737.000000 
	C1591.369263,737.200745 1598.299316,744.442993 1599.780396,755.982544 
	C1601.130249,766.499512 1595.415161,776.071533 1585.892578,778.531860 
	C1582.567993,779.390808 1578.971191,779.438232 1575.498169,779.443115 
	C1534.509277,779.500977 1493.520386,779.480469 1452.531494,779.480591 
	C1450.604858,779.480591 1448.678223,779.480530 1446.323608,779.480530 
	C1446.323608,788.068604 1446.246216,795.874512 1446.359741,803.677673 
	C1446.408691,807.050293 1446.852173,810.417175 1448.008057,814.036987 
	C1492.327026,814.004822 1536.645996,813.972595 1581.831909,814.106018 
M466.790344,840.926086 
	C479.005188,853.875671 491.198486,866.845642 503.439270,879.770691 
	C529.760132,907.562927 556.101135,935.335999 582.443787,963.107605 
	C588.349731,969.333923 594.296082,975.521912 600.359863,981.869995 
	C602.118958,980.361694 603.402893,979.322815 604.618530,978.209412 
	C646.222229,940.108704 687.837952,902.021057 729.402161,863.877258 
	C737.841675,856.132141 746.083618,848.171753 755.040283,840.010803 
	C755.137817,839.875977 755.271729,839.752930 755.320618,839.602356 
	C755.355774,839.494141 755.287659,839.239868 755.248169,839.236206 
	C753.469116,839.069275 751.688171,838.793213 749.907410,838.792786 
	C657.051514,838.771118 564.195618,838.772644 471.339691,838.776550 
	C469.844299,838.776611 468.345795,838.802856 466.858887,838.932800 
	C466.723785,838.944580 466.663177,839.808960 466.790344,840.926086 
M1328.336426,811.919189 
	C1305.862427,792.427795 1283.388306,772.936340 1259.981689,752.636108 
	C1263.522949,752.141785 1265.916626,751.784729 1268.316650,751.476135 
	C1295.450928,747.987061 1316.253906,729.703613 1320.966675,702.774780 
	C1323.233887,689.820068 1323.441406,676.133972 1322.176147,663.010925 
	C1319.705078,637.381653 1304.052979,624.375366 1278.389160,624.384827 
	C1236.396240,624.400208 1194.403442,624.388062 1152.410522,624.390137 
	C1139.591064,624.390808 1132.916504,630.932983 1132.910767,643.647461 
	C1132.886108,698.971436 1132.885010,754.295410 1132.938354,809.619324 
	C1132.939697,811.050232 1133.664795,812.480530 1134.971436,814.063904 
	C1145.611084,813.977844 1156.250732,813.891846 1167.415527,813.218445 
	C1167.415527,761.998718 1167.415527,710.778992 1167.415527,659.522888 
	C1169.024658,659.322510 1169.669678,659.172302 1170.314575,659.171936 
	C1207.140991,659.154297 1243.967285,659.130859 1280.793701,659.165039 
	C1285.565552,659.169495 1287.836060,661.524780 1287.955200,666.773376 
	C1288.125122,674.267822 1288.288086,681.781616 1287.950928,689.264404 
	C1287.318359,703.300537 1279.671509,712.616699 1266.196289,716.360413 
	C1264.135376,716.932983 1262.048218,717.410522 1259.042969,717.864136 
	C1233.375854,717.928223 1207.708618,717.992371 1181.187256,718.301270 
	C1181.086548,728.589783 1180.890015,738.879639 1181.032593,749.164734 
	C1181.046997,750.199768 1183.069702,752.023804 1184.236328,752.087280 
	C1189.870605,752.393982 1195.550781,751.943115 1201.172607,752.347229 
	C1203.758545,752.533142 1206.776611,753.441895 1208.699829,755.078918 
	C1229.821899,773.059509 1250.755127,791.261841 1271.778442,809.358948 
	C1273.730591,811.039246 1275.948608,812.410706 1278.966309,814.060425 
	C1281.454712,814.064575 1283.943237,814.072205 1286.431641,814.072327 
	C1299.703369,814.072998 1312.975342,814.097717 1326.246460,814.006042 
	C1327.033813,814.000671 1327.814575,813.056274 1328.336426,811.919189 
M425.919342,1158.202393 
	C442.064392,1143.056519 458.240662,1127.943726 474.347809,1112.757568 
	C504.873901,1083.977051 535.350403,1055.143921 565.879456,1026.366577 
	C568.734924,1023.674805 571.819397,1021.225952 575.624329,1017.953125 
	C573.074768,1016.000916 571.622864,1015.111816 570.438660,1013.949829 
	C533.712463,977.910645 497.039673,941.817017 460.292175,905.799622 
	C448.647949,894.386719 436.814850,883.166504 424.499420,871.378296 
	C424.283142,873.142578 423.878204,874.906799 423.877625,876.671143 
	C423.847198,968.989685 423.850616,1061.308228 423.854767,1153.626709 
	C423.854828,1155.124756 423.868561,1156.626099 423.994781,1158.115845 
	C424.007843,1158.269775 424.837982,1158.354492 425.919342,1158.202393 
M881.141052,414.402954 
	C882.856384,414.669952 884.571655,415.169830 886.287109,415.170593 
	C978.823730,415.210388 1071.360352,415.208527 1163.896973,415.206787 
	C1165.226440,415.206757 1166.560059,415.196777 1167.880005,415.069672 
	C1168.040405,415.054230 1168.127319,414.275085 1167.935059,413.249878 
	C1117.552246,363.237762 1067.169434,313.225677 1016.077942,262.510071 
	C1014.954041,264.142670 1014.389038,265.190125 1013.617065,266.052368 
	C980.884277,302.614838 948.114197,339.143982 915.394409,375.718079 
	C904.091309,388.352600 892.907654,401.093964 881.141052,414.402954 
M424.987671,414.008575 
	C424.907166,414.154358 424.784729,414.293396 424.759918,414.448090 
	C424.741364,414.563721 424.839203,414.805389 424.901428,414.811005 
	C426.526825,414.957275 428.154327,415.190430 429.781525,415.190857 
	C495.887817,415.208832 561.994080,415.205353 628.100403,415.204742 
	C654.742737,415.204498 681.385132,415.223114 708.027283,415.151031 
	C709.392151,415.147369 710.755005,414.366882 711.856750,413.325043 
	C667.045044,363.249146 622.233337,313.173279 577.257202,262.913605 
	C575.814026,264.240356 574.825012,265.091827 573.900208,266.008179 
	C533.558655,305.981537 493.203156,345.940857 452.901123,385.954010 
	C443.691376,395.097778 434.668274,404.429535 424.987671,414.008575 
M375.494354,1181.614746 
	C375.695038,1179.842896 376.070831,1178.071167 376.071320,1176.299316 
	C376.098541,1077.718994 376.094635,979.138733 376.090942,880.558411 
	C376.090912,879.060669 376.092957,877.559937 375.980255,876.069275 
	C375.967804,875.904419 375.201965,875.796509 374.185455,875.981140 
	C326.019867,924.356445 277.854248,972.731689 229.482834,1021.313721 
	C230.866425,1022.901306 231.921722,1024.156738 233.023468,1025.370117 
	C267.269775,1063.081421 301.498291,1100.808960 335.781891,1138.486328 
	C348.768738,1152.758667 361.883759,1166.914307 375.494354,1181.614746 
M947.500000,456.205078 
	C908.453003,456.205078 869.406006,456.205078 829.012695,456.205078 
	C881.325745,507.759064 932.630371,558.319336 983.980164,608.924011 
	C982.801941,610.903870 981.899231,612.472229 980.948669,614.011047 
	C942.883789,675.632202 904.812988,737.249695 866.747253,798.870422 
	C860.096985,809.635803 853.385925,820.365540 846.935364,831.249573 
	C846.217407,832.460999 846.363342,835.187744 847.255249,836.165161 
	C850.128357,839.313416 853.689880,841.819946 856.717896,844.842407 
	C896.576599,884.627991 936.399963,924.449097 976.201843,964.291565 
	C982.194031,970.289978 988.032166,976.442322 994.270752,982.862305 
	C998.105103,978.846619 1001.381775,975.338013 1004.740112,971.909424 
	C1047.397827,928.359619 1090.061157,884.815369 1132.740479,841.286804 
	C1138.737061,835.170837 1138.812500,835.192566 1134.382080,828.155762 
	C1111.407715,791.665344 1088.419922,755.183533 1065.428223,718.704102 
	C1043.143555,683.346375 1020.885254,647.971619 998.486572,612.686157 
	C996.720764,609.904358 996.737854,608.105591 999.044495,605.862671 
	C1002.862793,602.149902 1006.481018,598.231628 1010.195068,594.411133 
	C1049.201660,554.286499 1088.214355,514.167725 1127.214722,474.036987 
	C1132.717651,468.374634 1138.163696,462.656860 1144.366333,456.205048 
	C1078.329468,456.205048 1013.414734,456.205048 947.500000,456.205078 
M925.841248,1306.652344 
	C955.168823,1332.278809 984.483887,1357.919678 1013.855713,1383.495361 
	C1015.577515,1384.994751 1017.613098,1386.590698 1019.747620,1387.086182 
	C1035.337524,1390.704346 1050.257080,1388.551636 1062.620605,1378.284668 
	C1075.019409,1367.988525 1086.531982,1356.571777 1097.965576,1345.177246 
	C1128.041138,1315.204468 1157.868408,1284.982300 1187.775757,1254.840942 
	C1190.406494,1252.189575 1192.900269,1249.402222 1196.123657,1245.968506 
	C1193.488892,1245.968506 1191.877930,1245.968384 1190.267090,1245.968384 
	C1122.806030,1245.968994 1055.344971,1245.969604 987.883972,1245.970459 
	C956.402161,1245.970947 924.920227,1245.951172 893.438599,1246.027466 
	C891.588562,1246.031982 889.060974,1246.198486 888.011963,1247.349731 
	C883.999695,1251.752808 880.463379,1256.589600 876.496277,1261.583008 
	C892.928345,1276.597412 909.119385,1291.391602 925.841248,1306.652344 
M647.723511,1361.221558 
	C684.559937,1328.266479 721.396362,1295.311401 758.614624,1262.014648 
	C754.867126,1257.230225 751.950500,1252.975708 748.448242,1249.275269 
	C746.867371,1247.604858 744.122070,1246.107300 741.902649,1246.103760 
	C642.413757,1245.947510 542.924561,1245.965698 443.435455,1245.977417 
	C442.098175,1245.977539 440.760864,1246.159180 438.183044,1246.346069 
	C441.788330,1249.739136 444.517853,1252.184204 447.110565,1254.766602 
	C485.114014,1292.619995 523.216919,1330.374512 561.016907,1368.430176 
	C572.340637,1379.830322 584.791199,1388.019775 601.375732,1388.628174 
	C609.478516,1388.925415 616.763306,1387.736572 623.110229,1381.960083 
	C630.864441,1374.902710 639.122314,1368.399048 647.723511,1361.221558 
M244.610336,953.104675 
	C281.129425,918.855957 317.648529,884.607239 354.025848,850.491516 
	C349.651947,842.380981 344.547516,838.625000 334.946747,838.670593 
	C238.158600,839.130066 141.367401,838.950134 44.577061,838.949890 
	C43.000187,838.949890 41.423317,838.949829 38.911495,838.949829 
	C40.301128,840.595764 40.960030,841.479492 41.721981,842.262939 
	C51.124599,851.931274 60.460777,861.666077 69.970474,871.228210 
	C107.080086,908.542480 144.232376,945.814331 181.441132,983.029724 
	C182.894989,984.483826 184.979691,985.800842 186.955231,986.157104 
	C197.235092,988.011047 207.167603,986.485107 215.263428,979.763184 
	C225.240173,971.479370 234.505020,962.338135 244.610336,953.104675 
M1441.944702,985.785400 
	C1445.247681,986.170349 1448.620117,987.152222 1451.834961,986.778625 
	C1455.303955,986.375549 1459.329468,985.547913 1461.875122,983.423340 
	C1468.634766,977.781921 1474.833862,971.447693 1481.066650,965.200378 
	C1501.773193,944.446106 1522.442505,923.654236 1543.038086,902.790100 
	C1561.764648,883.819580 1580.382690,864.741882 1599.028687,845.691956 
	C1600.825684,843.856140 1602.481323,841.882141 1605.123657,838.950195 
	C1601.854858,838.950195 1599.942261,838.950256 1598.029785,838.950256 
	C1502.206787,838.950378 1406.383057,839.109253 1310.561890,838.697205 
	C1301.293335,838.657410 1294.967041,840.928955 1290.675537,848.909790 
	C1290.524414,849.190796 1290.456787,849.516663 1290.246826,850.116882 
	C1291.018799,850.975098 1291.824219,852.007812 1292.765503,852.896423 
	C1307.295288,866.613403 1321.786865,880.371887 1336.398193,894.001770 
	C1366.356567,921.947327 1396.274780,949.938416 1426.507812,977.584473 
	C1430.490356,981.226257 1436.222046,982.955383 1441.944702,985.785400 
M1262.944092,1060.500000 
	C1262.944092,1100.875366 1262.944092,1141.250854 1262.944092,1181.626221 
	C1263.323486,1181.755371 1263.702881,1181.884644 1264.082275,1182.013794 
	C1312.617798,1128.602783 1361.153198,1075.191772 1410.235840,1021.178650 
	C1360.821655,972.603516 1311.744141,924.359253 1262.943970,876.387573 
	C1262.943970,936.683289 1262.943970,998.091614 1262.944092,1060.500000 
M674.916443,1112.583618 
	C653.928223,1091.449829 632.940063,1070.316040 611.467163,1048.694214 
	C562.414368,1098.443726 513.928284,1147.618408 464.633606,1197.613281 
	C563.742249,1197.613281 661.257751,1197.613281 760.257568,1197.613281 
	C731.306946,1168.769043 703.361511,1140.926392 674.916443,1112.583618 
M945.598511,1127.098389 
	C922.294373,1150.400513 898.990173,1173.702637 874.957275,1197.733398 
	C973.985718,1197.733398 1071.450439,1197.733398 1170.364502,1197.733398 
	C1120.937744,1147.618164 1072.428467,1098.433228 1023.639587,1048.964844 
	C997.395142,1075.240479 971.746765,1100.919312 945.598511,1127.098389 
M1181.827637,1132.654663 
	C1191.350708,1141.686768 1200.873901,1150.718750 1210.970947,1160.295166 
	C1210.970947,1063.015015 1210.970947,966.985840 1210.970947,870.092468 
	C1160.454590,919.701965 1110.523438,968.736572 1059.740967,1018.607361 
	C1061.152344,1019.430054 1062.156738,1019.791931 1062.869141,1020.463379 
	C1079.949829,1036.563477 1096.981323,1052.715698 1114.059082,1068.819214 
	C1136.466309,1089.948242 1158.905396,1111.043701 1181.827637,1132.654663 
M514.671448,539.828979 
	C538.300903,563.300415 561.930359,586.771851 585.866638,610.548035 
	C636.406799,562.366394 687.026306,514.109192 738.208496,465.315491 
	C638.348206,465.315491 539.662903,465.315491 440.155975,465.315491 
	C465.212891,490.374786 489.689880,514.854065 514.671448,539.828979 
M762.659790,220.500031 
	C762.659790,181.438400 762.659790,142.376770 762.659790,102.403114 
	C759.600891,103.806076 757.520691,104.731529 755.464539,105.707497 
	C723.310669,120.969704 697.188293,144.013763 673.019775,169.587097 
	C657.126831,186.403793 641.228333,203.215485 625.257690,219.958191 
	C622.335815,223.021362 619.054688,225.741913 615.766724,228.780228 
	C664.616211,278.192200 713.040710,327.174286 761.465210,376.156372 
	C761.863220,376.002533 762.261292,375.848694 762.659302,375.694855 
	C762.659302,324.296600 762.659302,272.898315 762.659790,220.500031 
M956.088501,255.586899 
	C964.788513,246.703094 973.488464,237.819275 982.069763,229.056656 
	C981.595581,228.232132 981.481201,227.896484 981.258423,227.665375 
	C960.812805,206.454575 940.387939,185.223663 919.897827,164.055939 
	C897.048706,140.451233 872.127930,119.571724 842.138611,105.429832 
	C840.307861,104.566513 838.425110,103.813614 836.250854,102.872696 
	C836.250854,194.345840 836.250854,284.896210 836.250854,376.623749 
	C876.510071,335.950836 916.042480,296.012268 956.088501,255.586899 
M948.160950,1390.335693 
	C915.468933,1357.000122 882.776917,1323.664673 849.450562,1289.682251 
	C849.450562,1376.826538 849.450562,1462.802490 849.450562,1549.397095 
	C852.642639,1548.612671 855.364319,1548.026855 858.038818,1547.273682 
	C885.785217,1539.460327 907.946289,1522.793091 928.453796,1503.293579 
	C944.608337,1487.933350 960.930725,1472.723267 977.738403,1458.089600 
	C984.284729,1452.389893 992.364990,1448.452026 1000.283264,1443.367188 
	C983.103149,1425.891113 965.876709,1408.367920 948.160950,1390.335693 
M700.380920,1506.109009 
	C721.928589,1526.711304 745.939148,1542.916992 775.978577,1549.251587 
	C775.978577,1462.564331 775.978577,1376.695801 775.978577,1290.010864 
	C725.445435,1341.502930 675.475586,1392.421021 625.241760,1443.608154 
	C626.415161,1444.454224 627.009460,1445.028442 627.716187,1445.370850 
	C644.276184,1453.397583 658.093445,1465.106079 671.198303,1477.761475 
	C680.783569,1487.017822 690.317566,1496.327148 700.380920,1506.109009 
M405.037170,249.516937 
	C405.037170,290.436829 405.037170,331.356720 405.037170,373.842560 
	C458.295258,326.313782 510.340363,279.867523 562.381348,233.424866 
	C561.649109,232.432098 561.422546,231.964264 561.060059,231.656555 
	C544.426392,217.536636 527.775818,203.436615 511.138977,189.320419 
	C503.876129,183.157974 496.551941,177.147781 486.915649,174.953232 
	C468.265686,170.705963 450.902832,174.423065 434.495270,183.534988 
	C420.399567,191.363022 409.274414,202.047134 406.629486,218.638214 
	C405.067505,228.436111 405.501038,238.552155 405.037170,249.516937 
M1308.304932,1187.807495 
	C1303.402710,1192.498413 1298.500366,1197.189209 1293.598022,1201.880005 
	C1295.514404,1202.947632 1296.652222,1202.932373 1297.789429,1202.949829 
	C1316.599731,1203.238159 1335.410889,1203.820190 1354.219971,1203.757080 
	C1385.687988,1203.651489 1417.154053,1203.066895 1448.621948,1202.822632 
	C1461.913208,1202.719360 1473.562500,1199.250000 1482.074463,1188.260864 
	C1496.775024,1169.282227 1503.198730,1147.718140 1501.867676,1123.888794 
	C1501.253784,1112.896729 1497.177612,1103.208252 1488.970093,1095.494873 
	C1484.722778,1091.503174 1480.729980,1087.238281 1476.443237,1083.291260 
	C1466.813110,1074.424438 1457.071167,1065.679077 1447.427002,1056.931763 
	C1446.562256,1057.511719 1446.108765,1057.732300 1445.758667,1058.062744 
	C1422.385498,1080.115356 1399.022827,1102.179199 1375.654053,1124.236450 
	C1353.375122,1145.265137 1331.090332,1166.287720 1308.304932,1187.807495 
M232.549652,1094.954590 
	C219.168991,1082.281860 205.788345,1069.609253 191.955429,1056.508179 
	C178.379364,1069.284180 165.215881,1081.735962 151.974945,1094.104736 
	C145.618607,1100.042480 140.534790,1106.786987 139.003006,1115.509888 
	C133.992935,1144.040405 141.454529,1169.298096 160.052795,1191.180054 
	C165.033112,1197.039917 171.738586,1201.411621 179.823090,1201.858887 
	C196.769089,1202.796509 213.736969,1203.869995 230.697647,1203.900757 
	C265.841949,1203.964478 300.987427,1203.381958 336.132477,1203.072021 
	C339.222351,1203.044800 342.312653,1203.068359 345.402771,1203.068359 
	C345.576721,1202.646606 345.750702,1202.224976 345.924652,1201.803223 
	C308.300476,1166.354004 270.676331,1130.904663 232.549652,1094.954590 
M543.047668,1413.453247 
	C506.901276,1374.131470 470.716034,1334.845215 434.681427,1295.421265 
	C431.758911,1292.223999 429.153717,1291.043701 425.285431,1293.129395 
	C424.273529,1293.674927 423.130829,1294.067139 422.000946,1294.287598 
	C418.769165,1294.918213 418.020233,1296.841309 418.005127,1299.994629 
	C417.949432,1311.635498 417.218689,1323.279297 417.373505,1334.913574 
	C417.732086,1361.853394 418.151764,1388.799561 419.140198,1415.721436 
	C419.852478,1435.122437 429.356750,1450.708008 444.570526,1461.780273 
	C456.307373,1470.322266 469.441650,1477.238525 482.645355,1483.396484 
	C499.283417,1491.156128 516.177368,1491.665039 531.625549,1479.567017 
	C545.868958,1468.412476 555.786743,1453.608154 566.249695,1438.746094 
	C558.544189,1430.358521 551.026367,1422.175293 543.047668,1413.453247 
M1107.215942,1482.372314 
	C1119.417358,1490.026367 1132.348145,1490.373413 1145.626221,1485.946777 
	C1162.051147,1480.470947 1177.028442,1471.975464 1190.739014,1461.672852 
	C1203.751343,1451.895142 1212.632812,1438.544678 1214.963989,1422.192993 
	C1216.790039,1409.384766 1217.408691,1396.320923 1217.487183,1383.364258 
	C1217.655762,1355.557373 1217.135620,1327.746216 1216.866089,1299.937256 
	C1216.853516,1298.641968 1216.933960,1297.089355 1216.288818,1296.102295 
	C1213.852417,1292.374390 1203.576782,1291.869507 1200.532837,1295.184692 
	C1175.536621,1322.406982 1150.552612,1349.640503 1125.552002,1376.858765 
	C1107.530151,1396.479126 1089.494385,1416.086792 1071.444458,1435.681274 
	C1069.941162,1437.313477 1068.472290,1438.562256 1070.292969,1441.144165 
	C1080.862183,1456.132812 1091.264282,1471.241211 1107.215942,1482.372314 
M844.829834,1092.500000 
	C844.829834,1110.162354 844.829834,1127.824829 844.829834,1145.487183 
	C845.218567,1145.563965 845.607300,1145.640869 845.996033,1145.717651 
	C886.188232,1098.742676 926.380371,1051.767700 966.719788,1004.620667 
	C926.109131,968.257080 886.058044,932.394470 846.006897,896.531921 
	C845.614502,896.781311 845.222046,897.030762 844.829651,897.280151 
	C844.829651,962.020081 844.829651,1026.760010 844.829834,1092.500000 
M756.523560,1123.970581 
	C762.763550,1131.233521 769.003601,1138.496338 775.911194,1146.536255 
	C775.911194,1062.625610 775.911194,979.845520 775.911194,895.811279 
	C734.981567,932.471802 694.886536,968.384766 654.423035,1004.627686 
	C688.538696,1044.507690 722.298157,1083.971313 756.523560,1123.970581 
M1266.164307,362.500000 
	C1266.164307,371.085693 1266.164307,379.671417 1266.164307,389.676819 
	C1298.757080,359.340454 1330.400024,329.888245 1362.440308,300.066101 
	C1330.261719,276.229370 1298.723633,252.867081 1266.164429,228.748398 
	C1266.164429,274.029877 1266.164429,317.764923 1266.164307,362.500000 
M364.052551,366.499939 
	C364.052551,321.016022 364.052551,275.532104 364.052551,228.798447 
	C331.370850,253.021469 299.887390,276.356354 267.872589,300.085083 
	C299.995148,329.976959 331.563232,359.352844 364.052582,389.586060 
	C364.052582,381.347748 364.052582,374.423767 364.052551,366.499939 
M69.160217,929.702637 
	C66.547981,931.092041 63.935738,932.481506 61.132137,933.972717 
	C76.332939,986.175293 91.453224,1038.101318 106.868668,1091.041016 
	C127.266953,1069.171021 146.950638,1048.067139 166.889984,1026.689209 
	C165.519562,1025.098755 164.497833,1023.829895 163.390778,1022.640381 
	C134.705399,991.819275 105.964348,961.049622 77.394073,930.122192 
	C74.667900,927.171143 72.553955,927.397705 69.160217,929.702637 
M1557.875977,1004.319580 
	C1563.774658,984.050537 1569.664917,963.778992 1575.575928,943.513550 
	C1578.445923,933.673828 1578.384766,933.830566 1569.102539,929.012512 
	C1565.990479,927.397156 1564.268433,927.853882 1561.948486,930.357422 
	C1537.403198,956.846863 1512.725464,983.213562 1488.097778,1009.626831 
	C1482.914917,1015.185486 1477.787720,1020.796021 1472.447266,1026.586182 
	C1492.556763,1048.160889 1512.356323,1069.403076 1532.558838,1091.077515 
	C1541.051880,1061.879272 1549.313232,1033.477295 1557.875977,1004.319580 
M539.644287,142.171890 
	C534.748535,143.469666 529.852722,144.767441 524.172119,146.273270 
	C542.944031,169.729095 561.174072,192.507812 580.261047,216.357285 
	C581.536377,214.430649 582.125732,213.178497 583.030640,212.226135 
	C609.175842,184.709183 635.126160,157.000137 661.699341,129.902130 
	C667.609131,123.875618 668.380188,118.463341 665.277893,111.163513 
	C623.695312,121.450699 582.081848,131.745544 539.644287,142.171890 
M1018.812317,134.743637 
	C987.104065,126.859512 955.395874,118.975388 923.792053,111.117226 
	C920.659485,118.356781 920.724792,124.416153 927.029053,129.241867 
	C927.422180,129.542755 927.745178,129.937668 928.089539,130.299561 
	C947.251892,150.440811 966.401917,170.593811 985.579773,190.720291 
	C993.364319,198.889908 1001.209106,207.002121 1009.459656,215.591400 
	C1027.967651,192.450851 1046.191772,169.665329 1064.977783,146.177292 
	C1049.204224,142.270325 1034.403076,138.604233 1018.812317,134.743637 
M1316.828613,1351.672852 
	C1296.860229,1331.857178 1276.891968,1312.041504 1256.676025,1291.979980 
	C1256.676025,1335.184937 1256.676025,1377.848877 1256.676025,1421.359009 
	C1282.460571,1403.483887 1307.553589,1386.088257 1334.300537,1367.546021 
	C1328.166992,1361.991211 1322.747559,1357.083008 1316.828613,1351.672852 
z"/>
<path fill="#45904E" opacity="1.000000" stroke="none" 
	d="
M948.000000,456.205078 
	C1013.414734,456.205048 1078.329468,456.205048 1144.366333,456.205048 
	C1138.163696,462.656860 1132.717651,468.374634 1127.214722,474.036987 
	C1088.214355,514.167725 1049.201660,554.286499 1010.195068,594.411133 
	C1006.481018,598.231628 1002.862793,602.149902 999.044495,605.862671 
	C996.737854,608.105591 996.720764,609.904358 998.486572,612.686157 
	C1020.885254,647.971619 1043.143555,683.346375 1065.428223,718.704102 
	C1088.419922,755.183533 1111.407715,791.665344 1134.382080,828.155762 
	C1138.812500,835.192566 1138.737061,835.170837 1132.740479,841.286804 
	C1090.061157,884.815369 1047.397827,928.359619 1004.740112,971.909424 
	C1001.381775,975.338013 998.105103,978.846619 994.270752,982.862305 
	C988.032166,976.442322 982.194031,970.289978 976.201843,964.291565 
	C936.399963,924.449097 896.576599,884.627991 856.717896,844.842407 
	C853.689880,841.819946 850.128357,839.313416 847.255249,836.165161 
	C846.363342,835.187744 846.217407,832.460999 846.935364,831.249573 
	C853.385925,820.365540 860.096985,809.635803 866.747253,798.870422 
	C904.812988,737.249695 942.883789,675.632202 980.948669,614.011047 
	C981.899231,612.472229 982.801941,610.903870 983.980164,608.924011 
	C932.630371,558.319336 881.325745,507.759064 829.012695,456.205078 
	C869.406006,456.205078 908.453003,456.205078 948.000000,456.205078 
M897.494507,818.393494 
	C899.445496,818.595947 901.396423,818.973572 903.347534,818.975098 
	C947.466309,819.009094 991.585083,819.001709 1035.703857,819.002563 
	C1051.520020,819.002869 1067.336426,819.031250 1083.152222,818.951599 
	C1084.336304,818.945679 1085.516357,818.172363 1087.037598,817.088074 
	C1086.515625,815.753662 1086.204102,814.282898 1085.441162,813.104492 
	C1054.796021,765.777954 1024.112305,718.476379 993.413391,671.184692 
	C992.832825,670.290344 992.010803,669.552612 991.106079,668.518433 
	C990.460022,669.383606 990.047546,669.867310 989.709656,670.398499 
	C960.163208,716.855225 930.611389,763.308594 901.111450,809.794922 
	C899.540466,812.270569 898.409851,815.025635 897.494507,818.393494 
z"/>
<path fill="#E8983E" opacity="1.000000" stroke="none" 
	d="
M925.575806,1306.419189 
	C909.119385,1291.391602 892.928345,1276.597412 876.496277,1261.583008 
	C880.463379,1256.589600 883.999695,1251.752808 888.011963,1247.349731 
	C889.060974,1246.198486 891.588562,1246.031982 893.438599,1246.027466 
	C924.920227,1245.951172 956.402161,1245.970947 987.883972,1245.970459 
	C1055.344971,1245.969604 1122.806030,1245.968994 1190.267090,1245.968384 
	C1191.877930,1245.968384 1193.488892,1245.968506 1196.123657,1245.968506 
	C1192.900269,1249.402222 1190.406494,1252.189575 1187.775757,1254.840942 
	C1157.868408,1284.982300 1128.041138,1315.204468 1097.965576,1345.177246 
	C1086.531982,1356.571777 1075.019409,1367.988525 1062.620605,1378.284668 
	C1050.257080,1388.551636 1035.337524,1390.704346 1019.747620,1387.086182 
	C1017.613098,1386.590698 1015.577515,1384.994751 1013.855713,1383.495361 
	C984.483887,1357.919678 955.168823,1332.278809 925.575806,1306.419189 
z"/>
<path fill="#E8983E" opacity="1.000000" stroke="none" 
	d="
M647.442993,1361.438721 
	C639.122314,1368.399048 630.864441,1374.902710 623.110229,1381.960083 
	C616.763306,1387.736572 609.478516,1388.925415 601.375732,1388.628174 
	C584.791199,1388.019775 572.340637,1379.830322 561.016907,1368.430176 
	C523.216919,1330.374512 485.114014,1292.619995 447.110565,1254.766602 
	C444.517853,1252.184204 441.788330,1249.739136 438.183044,1246.346069 
	C440.760864,1246.159180 442.098175,1245.977539 443.435455,1245.977417 
	C542.924561,1245.965698 642.413757,1245.947510 741.902649,1246.103760 
	C744.122070,1246.107300 746.867371,1247.604858 748.448242,1249.275269 
	C751.950500,1252.975708 754.867126,1257.230225 758.614624,1262.014648 
	C721.396362,1295.311401 684.559937,1328.266479 647.442993,1361.438721 
z"/>
<path fill="#E8983F" opacity="1.000000" stroke="none" 
	d="
M244.343964,953.336060 
	C234.505020,962.338135 225.240173,971.479370 215.263428,979.763184 
	C207.167603,986.485107 197.235092,988.011047 186.955231,986.157104 
	C184.979691,985.800842 182.894989,984.483826 181.441132,983.029724 
	C144.232376,945.814331 107.080086,908.542480 69.970474,871.228210 
	C60.460777,861.666077 51.124599,851.931274 41.721981,842.262939 
	C40.960030,841.479492 40.301128,840.595764 38.911495,838.949829 
	C41.423317,838.949829 43.000187,838.949890 44.577061,838.949890 
	C141.367401,838.950134 238.158600,839.130066 334.946747,838.670593 
	C344.547516,838.625000 349.651947,842.380981 354.025848,850.491516 
	C317.648529,884.607239 281.129425,918.855957 244.343964,953.336060 
z"/>
<path fill="#E8983F" opacity="1.000000" stroke="none" 
	d="
M1441.544189,985.677917 
	C1436.222046,982.955383 1430.490356,981.226257 1426.507812,977.584473 
	C1396.274780,949.938416 1366.356567,921.947327 1336.398193,894.001770 
	C1321.786865,880.371887 1307.295288,866.613403 1292.765503,852.896423 
	C1291.824219,852.007812 1291.018799,850.975098 1290.246826,850.116882 
	C1290.456787,849.516663 1290.524414,849.190796 1290.675537,848.909790 
	C1294.967041,840.928955 1301.293335,838.657410 1310.561890,838.697205 
	C1406.383057,839.109253 1502.206787,838.950378 1598.029785,838.950256 
	C1599.942261,838.950256 1601.854858,838.950195 1605.123657,838.950195 
	C1602.481323,841.882141 1600.825684,843.856140 1599.028687,845.691956 
	C1580.382690,864.741882 1561.764648,883.819580 1543.038086,902.790100 
	C1522.442505,923.654236 1501.773193,944.446106 1481.066650,965.200378 
	C1474.833862,971.447693 1468.634766,977.781921 1461.875122,983.423340 
	C1459.329468,985.547913 1455.303955,986.375549 1451.834961,986.778625 
	C1448.620117,987.152222 1445.247681,986.170349 1441.544189,985.677917 
z"/>
<path fill="#E8983E" opacity="1.000000" stroke="none" 
	d="
M1262.944092,1060.000000 
	C1262.943970,998.091614 1262.943970,936.683289 1262.943970,876.387573 
	C1311.744141,924.359253 1360.821655,972.603516 1410.235840,1021.178650 
	C1361.153198,1075.191772 1312.617798,1128.602783 1264.082275,1182.013794 
	C1263.702881,1181.884644 1263.323486,1181.755371 1262.944092,1181.626221 
	C1262.944092,1141.250854 1262.944092,1100.875366 1262.944092,1060.000000 
z"/>
<path fill="#E8983E" opacity="1.000000" stroke="none" 
	d="
M374.940308,1181.123169 
	C361.883759,1166.914307 348.768738,1152.758667 335.781891,1138.486328 
	C301.498291,1100.808960 267.269775,1063.081421 233.023468,1025.370117 
	C231.921722,1024.156738 230.866425,1022.901306 229.482834,1021.313721 
	C277.854248,972.731689 326.019867,924.356445 374.551880,876.311890 
	C374.925629,978.136169 374.932953,1079.629639 374.940308,1181.123169 
z"/>
<path fill="#E8983F" opacity="1.000000" stroke="none" 
	d="
M675.166260,1112.833740 
	C703.361511,1140.926392 731.306946,1168.769043 760.257568,1197.613281 
	C661.257751,1197.613281 563.742249,1197.613281 464.633606,1197.613281 
	C513.928284,1147.618408 562.414368,1098.443726 611.467163,1048.694214 
	C632.940063,1070.316040 653.928223,1091.449829 675.166260,1112.833740 
z"/>
<path fill="#E8983F" opacity="1.000000" stroke="none" 
	d="
M945.848389,1126.848389 
	C971.746765,1100.919312 997.395142,1075.240479 1023.639587,1048.964844 
	C1072.428467,1098.433228 1120.937744,1147.618164 1170.364502,1197.733398 
	C1071.450439,1197.733398 973.985718,1197.733398 874.957275,1197.733398 
	C898.990173,1173.702637 922.294373,1150.400513 945.848389,1126.848389 
z"/>
<path fill="#E8983E" opacity="1.000000" stroke="none" 
	d="
M1181.579224,1132.404053 
	C1158.905396,1111.043701 1136.466309,1089.948242 1114.059082,1068.819214 
	C1096.981323,1052.715698 1079.949829,1036.563477 1062.869141,1020.463379 
	C1062.156738,1019.791931 1061.152344,1019.430054 1059.740967,1018.607361 
	C1110.523438,968.736572 1160.454590,919.701965 1210.970947,870.092468 
	C1210.970947,966.985840 1210.970947,1063.015015 1210.970947,1160.295166 
	C1200.873901,1150.718750 1191.350708,1141.686768 1181.579224,1132.404053 
z"/>
<path fill="#E8983F" opacity="1.000000" stroke="none" 
	d="
M514.419189,539.581177 
	C489.689880,514.854065 465.212891,490.374786 440.155975,465.315491 
	C539.662903,465.315491 638.348206,465.315491 738.208496,465.315491 
	C687.026306,514.109192 636.406799,562.366394 585.866638,610.548035 
	C561.930359,586.771851 538.300903,563.300415 514.419189,539.581177 
z"/>
<path fill="#E8983E" opacity="1.000000" stroke="none" 
	d="
M425.559235,413.674744 
	C434.668274,404.429535 443.691376,395.097778 452.901123,385.954010 
	C493.203156,345.940857 533.558655,305.981537 573.900208,266.008179 
	C574.825012,265.091827 575.814026,264.240356 577.257202,262.913605 
	C622.233337,313.173279 667.045044,363.249146 711.510620,413.657623 
	C617.785950,413.992889 524.407532,413.997437 431.029083,413.984802 
	C429.205811,413.984528 427.382507,413.782562 425.559235,413.674744 
z"/>
<path fill="#E8983E" opacity="1.000000" stroke="none" 
	d="
M881.669434,413.786530 
	C892.907654,401.093964 904.091309,388.352600 915.394409,375.718079 
	C948.114197,339.143982 980.884277,302.614838 1013.617065,266.052368 
	C1014.389038,265.190125 1014.954041,264.142670 1016.077942,262.510071 
	C1067.169434,313.225677 1117.552246,363.237762 1167.607178,413.602203 
	C1073.237671,413.968048 979.196167,413.982330 885.154663,413.986420 
	C883.992920,413.986450 882.831177,413.856018 881.669434,413.786530 
z"/>
<path fill="#E8983E" opacity="1.000000" stroke="none" 
	d="
M425.068207,871.858093 
	C436.814850,883.166504 448.647949,894.386719 460.292175,905.799622 
	C497.039673,941.817017 533.712463,977.910645 570.438660,1013.949829 
	C571.622864,1015.111816 573.074768,1016.000916 575.624329,1017.953125 
	C571.819397,1021.225952 568.734924,1023.674805 565.879456,1026.366577 
	C535.350403,1055.143921 504.873901,1083.977051 474.347809,1112.757568 
	C458.240662,1127.943726 442.064392,1143.056519 425.517029,1157.835815 
	C425.099213,1062.265503 425.083710,967.061829 425.068207,871.858093 
z"/>
<path fill="#E89940" opacity="1.000000" stroke="none" 
	d="
M762.659546,221.000046 
	C762.659302,272.898315 762.659302,324.296600 762.659302,375.694855 
	C762.261292,375.848694 761.863220,376.002533 761.465210,376.156372 
	C713.040710,327.174286 664.616211,278.192200 615.766724,228.780228 
	C619.054688,225.741913 622.335815,223.021362 625.257690,219.958191 
	C641.228333,203.215485 657.126831,186.403793 673.019775,169.587097 
	C697.188293,144.013763 723.310669,120.969704 755.464539,105.707497 
	C757.520691,104.731529 759.600891,103.806076 762.659790,102.403114 
	C762.659790,142.376770 762.659790,181.438400 762.659546,221.000046 
z"/>
<path fill="#E8983F" opacity="1.000000" stroke="none" 
	d="
M955.831665,255.830292 
	C916.042480,296.012268 876.510071,335.950836 836.250854,376.623749 
	C836.250854,284.896210 836.250854,194.345840 836.250854,102.872696 
	C838.425110,103.813614 840.307861,104.566513 842.138611,105.429832 
	C872.127930,119.571724 897.048706,140.451233 919.897827,164.055939 
	C940.387939,185.223663 960.812805,206.454575 981.258423,227.665375 
	C981.481201,227.896484 981.595581,228.232132 982.069763,229.056656 
	C973.488464,237.819275 964.788513,246.703094 955.831665,255.830292 
z"/>
<path fill="#45904E" opacity="1.000000" stroke="none" 
	d="
M1278.043213,813.925537 
	C1275.948608,812.410706 1273.730591,811.039246 1271.778442,809.358948 
	C1250.755127,791.261841 1229.821899,773.059509 1208.699829,755.078918 
	C1206.776611,753.441895 1203.758545,752.533142 1201.172607,752.347229 
	C1195.550781,751.943115 1189.870605,752.393982 1184.236328,752.087280 
	C1183.069702,752.023804 1181.046997,750.199768 1181.032593,749.164734 
	C1180.890015,738.879639 1181.086548,728.589783 1181.885010,718.497070 
	C1183.067871,718.791687 1183.552612,718.976746 1184.037720,718.977112 
	C1208.146606,718.995361 1232.255493,719.013184 1256.364258,718.956482 
	C1257.567993,718.953613 1258.770264,718.288635 1259.973145,717.932007 
	C1262.048218,717.410522 1264.135376,716.932983 1266.196289,716.360413 
	C1279.671509,712.616699 1287.318359,703.300537 1287.950928,689.264404 
	C1288.288086,681.781616 1288.125122,674.267822 1287.955200,666.773376 
	C1287.836060,661.524780 1285.565552,659.169495 1280.793701,659.165039 
	C1243.967285,659.130859 1207.140991,659.154297 1170.314575,659.171936 
	C1169.669678,659.172302 1169.024658,659.322510 1167.415527,659.522888 
	C1167.415527,710.778992 1167.415527,761.998718 1166.863037,813.223572 
	C1157.925293,813.151550 1149.539795,813.004089 1141.155273,813.042236 
	C1138.786377,813.052979 1136.419922,813.606445 1134.052368,813.911072 
	C1133.664795,812.480530 1132.939697,811.050232 1132.938354,809.619324 
	C1132.885010,754.295410 1132.886108,698.971436 1132.910767,643.647461 
	C1132.916504,630.932983 1139.591064,624.390808 1152.410522,624.390137 
	C1194.403442,624.388062 1236.396240,624.400208 1278.389160,624.384827 
	C1304.052979,624.375366 1319.705078,637.381653 1322.176147,663.010925 
	C1323.441406,676.133972 1323.233887,689.820068 1320.966675,702.774780 
	C1316.253906,729.703613 1295.450928,747.987061 1268.316650,751.476135 
	C1265.916626,751.784729 1263.522949,752.141785 1259.981689,752.636108 
	C1283.388306,772.936340 1305.862427,792.427795 1327.968018,812.370117 
	C1312.808350,812.879761 1298.016846,812.908813 1283.226318,813.037231 
	C1281.496216,813.052246 1279.770752,813.616089 1278.043213,813.925537 
z"/>
<path fill="#E8993F" opacity="1.000000" stroke="none" 
	d="
M948.405640,1390.590210 
	C965.876709,1408.367920 983.103149,1425.891113 1000.283264,1443.367188 
	C992.364990,1448.452026 984.284729,1452.389893 977.738403,1458.089600 
	C960.930725,1472.723267 944.608337,1487.933350 928.453796,1503.293579 
	C907.946289,1522.793091 885.785217,1539.460327 858.038818,1547.273682 
	C855.364319,1548.026855 852.642639,1548.612671 849.450562,1549.397095 
	C849.450562,1462.802490 849.450562,1376.826538 849.450562,1289.682251 
	C882.776917,1323.664673 915.468933,1357.000122 948.405640,1390.590210 
z"/>
<path fill="#E8983E" opacity="1.000000" stroke="none" 
	d="
M754.416626,840.310547 
	C746.083618,848.171753 737.841675,856.132141 729.402161,863.877258 
	C687.837952,902.021057 646.222229,940.108704 604.618530,978.209412 
	C603.402893,979.322815 602.118958,980.361694 600.359863,981.869995 
	C594.296082,975.521912 588.349731,969.333923 582.443787,963.107605 
	C556.101135,935.335999 529.760132,907.562927 503.439270,879.770691 
	C491.198486,866.845642 479.005188,853.875671 467.177185,840.525391 
	C468.728851,840.084229 469.893677,840.008545 471.058472,840.008423 
	C563.851868,840.002441 656.645264,840.000732 749.438660,840.014648 
	C751.097961,840.014893 752.757324,840.207581 754.416626,840.310547 
z"/>
<path fill="#E8983E" opacity="1.000000" stroke="none" 
	d="
M700.127686,1505.860962 
	C690.317566,1496.327148 680.783569,1487.017822 671.198303,1477.761475 
	C658.093445,1465.106079 644.276184,1453.397583 627.716187,1445.370850 
	C627.009460,1445.028442 626.415161,1444.454224 625.241760,1443.608154 
	C675.475586,1392.421021 725.445435,1341.502930 775.978577,1290.010864 
	C775.978577,1376.695801 775.978577,1462.564331 775.978577,1549.251587 
	C745.939148,1542.916992 721.928589,1526.711304 700.127686,1505.860962 
z"/>
<path fill="#46904F" opacity="1.000000" stroke="none" 
	d="
M1447.116455,813.786621 
	C1446.852173,810.417175 1446.408691,807.050293 1446.359741,803.677673 
	C1446.246216,795.874512 1446.323608,788.068604 1446.323608,779.480530 
	C1448.678223,779.480530 1450.604858,779.480591 1452.531494,779.480591 
	C1493.520386,779.480469 1534.509277,779.500977 1575.498169,779.443115 
	C1578.971191,779.438232 1582.567993,779.390808 1585.892578,778.531860 
	C1595.415161,776.071533 1601.130249,766.499512 1599.780396,755.982544 
	C1598.299316,744.442993 1591.369263,737.200745 1580.907104,737.000000 
	C1567.582275,736.744385 1554.248291,737.020569 1540.919556,736.908691 
	C1525.103638,736.775940 1509.222290,737.313599 1493.488892,736.060059 
	C1466.005859,733.870361 1446.578125,712.925476 1445.045410,685.333374 
	C1443.566528,658.709839 1455.071167,637.886658 1477.167114,629.301941 
	C1484.603271,626.412781 1492.967773,624.706177 1500.936279,624.601379 
	C1537.753296,624.117126 1574.580078,624.387634 1611.403442,624.387634 
	C1613.193237,624.387634 1614.983032,624.387634 1617.008545,624.387634 
	C1617.008545,636.073608 1617.008545,647.198547 1617.008545,659.142700 
	C1615.293579,659.142700 1613.549438,659.142700 1611.805298,659.142700 
	C1574.981934,659.142578 1538.153076,659.530396 1501.337524,658.993042 
	C1480.125122,658.683472 1475.748535,679.669556 1482.226196,692.191467 
	C1486.464600,700.384583 1494.381714,701.934326 1502.697876,701.952820 
	C1528.357422,702.009827 1554.017456,701.906128 1579.676880,701.990784 
	C1605.879517,702.077209 1628.106445,719.487793 1633.230103,744.998657 
	C1640.550049,781.444214 1619.452148,811.393127 1581.119873,813.713379 
	C1579.592041,813.212646 1578.776245,813.010132 1577.960327,813.009827 
	C1535.601318,812.993896 1493.242188,812.988220 1450.883179,813.027649 
	C1449.627319,813.028809 1448.372070,813.522522 1447.116455,813.786621 
z"/>
<path fill="#46904E" opacity="1.000000" stroke="none" 
	d="
M67.060837,813.900818 
	C66.724861,813.608826 66.096481,813.318115 66.095139,813.024597 
	C66.045082,802.070190 66.052917,791.115540 66.052917,779.481018 
	C68.451218,779.481018 70.398041,779.481018 72.344864,779.481018 
	C113.160950,779.481262 153.977066,779.500977 194.793076,779.446838 
	C198.270325,779.442261 201.858765,779.405701 205.202774,778.591919 
	C215.054016,776.194397 220.606705,766.633972 219.199127,755.169617 
	C217.880173,744.427124 210.451019,737.083801 200.089706,736.991943 
	C179.433380,736.808838 158.774155,736.983032 138.116455,736.911621 
	C126.160927,736.870300 114.192520,737.569336 102.429039,734.117188 
	C80.397064,727.651611 65.220390,707.978210 64.413536,685.039185 
	C63.807388,667.806458 67.489845,652.340881 80.281487,639.924927 
	C90.441414,630.063416 102.872284,624.727051 116.711693,624.555847 
	C155.855804,624.071472 195.009827,624.386169 234.159943,624.396118 
	C234.806076,624.396301 235.452194,624.523560 236.446350,624.628113 
	C236.446350,635.944275 236.446350,647.168396 236.446350,659.142273 
	C234.749817,659.142273 233.005310,659.142212 231.260788,659.142273 
	C193.776642,659.142944 156.292435,659.113892 118.808357,659.163696 
	C108.559097,659.177307 100.905640,665.798706 99.342781,675.708313 
	C97.454933,687.678589 102.349495,697.717041 111.897125,700.519409 
	C115.506989,701.578979 119.442574,701.896729 123.232704,701.914673 
	C148.054977,702.032288 172.880936,701.741943 197.700104,702.044128 
	C220.092239,702.316711 238.314087,711.371033 248.125137,731.915466 
	C258.313293,753.249695 256.901642,774.897400 242.182785,794.094971 
	C232.251465,807.048279 217.982483,812.898804 201.069839,813.689575 
	C199.523224,813.211243 198.706940,813.009460 197.890610,813.009155 
	C155.505234,812.993652 113.119850,812.987671 70.734528,813.033020 
	C69.509651,813.034363 68.285385,813.598938 67.060837,813.900818 
z"/>
<path fill="#E8983F" opacity="1.000000" stroke="none" 
	d="
M405.037170,249.021027 
	C405.501038,238.552155 405.067505,228.436111 406.629486,218.638214 
	C409.274414,202.047134 420.399567,191.363022 434.495270,183.534988 
	C450.902832,174.423065 468.265686,170.705963 486.915649,174.953232 
	C496.551941,177.147781 503.876129,183.157974 511.138977,189.320419 
	C527.775818,203.436615 544.426392,217.536636 561.060059,231.656555 
	C561.422546,231.964264 561.649109,232.432098 562.381348,233.424866 
	C510.340363,279.867523 458.295258,326.313782 405.037170,373.842560 
	C405.037170,331.356720 405.037170,290.436829 405.037170,249.021027 
z"/>
<path fill="#E8983E" opacity="1.000000" stroke="none" 
	d="
M1201.894287,332.945435 
	C1201.894287,345.855591 1201.894287,358.765778 1201.894287,371.675934 
	C1201.499512,371.900879 1201.104614,372.125824 1200.709839,372.350739 
	C1148.909546,326.131287 1097.109253,279.911804 1044.751465,233.194870 
	C1049.411011,229.154388 1053.827515,225.262329 1058.310913,221.448730 
	C1070.858032,210.776001 1083.863281,200.597290 1095.893921,189.372589 
	C1113.247925,173.180939 1133.054443,169.838211 1155.113770,176.107254 
	C1170.004028,180.338913 1183.055420,187.709351 1192.694580,200.202728 
	C1198.122925,207.238541 1201.195557,215.119812 1201.235840,224.180466 
	C1201.269775,231.823883 1201.780884,239.465195 1201.710693,247.864502 
	C1201.227905,249.269043 1201.017212,249.916443 1201.016846,250.563995 
	C1200.998779,276.786499 1200.987549,303.009033 1201.036377,329.231445 
	C1201.038696,330.469971 1201.595581,331.707458 1201.894287,332.945435 
z"/>
<path fill="#E8983F" opacity="1.000000" stroke="none" 
	d="
M1308.556641,1187.560303 
	C1331.090332,1166.287720 1353.375122,1145.265137 1375.654053,1124.236450 
	C1399.022827,1102.179199 1422.385498,1080.115356 1445.758667,1058.062744 
	C1446.108765,1057.732300 1446.562256,1057.511719 1447.427002,1056.931763 
	C1457.071167,1065.679077 1466.813110,1074.424438 1476.443237,1083.291260 
	C1480.729980,1087.238281 1484.722778,1091.503174 1488.970093,1095.494873 
	C1497.177612,1103.208252 1501.253784,1112.896729 1501.867676,1123.888794 
	C1503.198730,1147.718140 1496.775024,1169.282227 1482.074463,1188.260864 
	C1473.562500,1199.250000 1461.913208,1202.719360 1448.621948,1202.822632 
	C1417.154053,1203.066895 1385.687988,1203.651489 1354.219971,1203.757080 
	C1335.410889,1203.820190 1316.599731,1203.238159 1297.789429,1202.949829 
	C1296.652222,1202.932373 1295.514404,1202.947632 1293.598022,1201.880005 
	C1298.500366,1197.189209 1303.402710,1192.498413 1308.556641,1187.560303 
z"/>
<path fill="#E8983F" opacity="1.000000" stroke="none" 
	d="
M232.800903,1095.205078 
	C270.676331,1130.904663 308.300476,1166.354004 345.924652,1201.803223 
	C345.750702,1202.224976 345.576721,1202.646606 345.402771,1203.068359 
	C342.312653,1203.068359 339.222351,1203.044800 336.132477,1203.072021 
	C300.987427,1203.381958 265.841949,1203.964478 230.697647,1203.900757 
	C213.736969,1203.869995 196.769089,1202.796509 179.823090,1201.858887 
	C171.738586,1201.411621 165.033112,1197.039917 160.052795,1191.180054 
	C141.454529,1169.298096 133.992935,1144.040405 139.003006,1115.509888 
	C140.534790,1106.786987 145.618607,1100.042480 151.974945,1094.104736 
	C165.215881,1081.735962 178.379364,1069.284180 191.955429,1056.508179 
	C205.788345,1069.609253 219.168991,1082.281860 232.800903,1095.205078 
z"/>
<path fill="#E8993F" opacity="1.000000" stroke="none" 
	d="
M543.278137,1413.722656 
	C551.026367,1422.175293 558.544189,1430.358521 566.249695,1438.746094 
	C555.786743,1453.608154 545.868958,1468.412476 531.625549,1479.567017 
	C516.177368,1491.665039 499.283417,1491.156128 482.645355,1483.396484 
	C469.441650,1477.238525 456.307373,1470.322266 444.570526,1461.780273 
	C429.356750,1450.708008 419.852478,1435.122437 419.140198,1415.721436 
	C418.151764,1388.799561 417.732086,1361.853394 417.373505,1334.913574 
	C417.218689,1323.279297 417.949432,1311.635498 418.005127,1299.994629 
	C418.020233,1296.841309 418.769165,1294.918213 422.000946,1294.287598 
	C423.130829,1294.067139 424.273529,1293.674927 425.285431,1293.129395 
	C429.153717,1291.043701 431.758911,1292.223999 434.681427,1295.421265 
	C470.716034,1334.845215 506.901276,1374.131470 543.278137,1413.722656 
z"/>
<path fill="#E8983F" opacity="1.000000" stroke="none" 
	d="
M1106.908569,1482.177002 
	C1091.264282,1471.241211 1080.862183,1456.132812 1070.292969,1441.144165 
	C1068.472290,1438.562256 1069.941162,1437.313477 1071.444458,1435.681274 
	C1089.494385,1416.086792 1107.530151,1396.479126 1125.552002,1376.858765 
	C1150.552612,1349.640503 1175.536621,1322.406982 1200.532837,1295.184692 
	C1203.576782,1291.869507 1213.852417,1292.374390 1216.288818,1296.102295 
	C1216.933960,1297.089355 1216.853516,1298.641968 1216.866089,1299.937256 
	C1217.135620,1327.746216 1217.655762,1355.557373 1217.487183,1383.364258 
	C1217.408691,1396.320923 1216.790039,1409.384766 1214.963989,1422.192993 
	C1212.632812,1438.544678 1203.751343,1451.895142 1190.739014,1461.672852 
	C1177.028442,1471.975464 1162.051147,1480.470947 1145.626221,1485.946777 
	C1132.348145,1490.373413 1119.417358,1490.026367 1106.908569,1482.177002 
z"/>
<path fill="#E8983E" opacity="1.000000" stroke="none" 
	d="
M160.061798,468.238556 
	C162.319214,467.115417 164.576630,465.992279 167.542435,464.889465 
	C168.834579,464.603821 169.418335,464.297882 170.002090,463.991974 
	C171.103455,463.648438 172.204819,463.304932 173.928009,463.271576 
	C175.853073,463.696930 177.168777,463.989990 178.457672,463.899872 
	C191.778076,462.968811 205.089218,461.243591 218.412445,461.154083 
	C245.258850,460.973816 272.111176,461.674347 299.433777,462.006287 
	C306.281464,462.003082 312.656433,462.005096 319.441132,462.005005 
	C321.572906,462.683533 323.294983,463.364136 325.017090,464.044739 
	C311.865051,476.277710 298.763306,488.565277 285.550751,500.732544 
	C256.417969,527.560486 227.232422,554.331055 198.060883,581.116882 
	C192.192596,586.505249 186.290970,591.857361 180.160645,597.448792 
	C158.226532,578.615723 135.866318,560.612305 124.364243,533.118103 
	C123.915100,532.044495 123.491463,530.959534 123.015732,529.897888 
	C118.170097,519.083923 118.439217,508.944916 126.926041,499.863800 
	C134.964127,491.262787 142.988937,482.649353 151.702637,473.975250 
	C153.199402,473.174744 154.013123,472.440369 154.826843,471.706024 
	C154.826859,471.706024 154.832397,471.830170 155.152832,471.843994 
	C157.002762,470.651398 158.532288,469.444977 160.061798,468.238556 
z"/>
<path fill="#E8983E" opacity="1.000000" stroke="none" 
	d="
M1304.362305,467.162842 
	C1303.297729,466.341187 1302.233032,465.519562 1301.136963,464.039001 
	C1303.057983,462.923279 1305.010742,462.466461 1307.435547,462.007141 
	C1314.284546,462.006927 1320.661499,462.009125 1327.504517,462.007812 
	C1335.899902,461.669922 1343.835938,460.939026 1351.757202,461.072327 
	C1380.406738,461.554352 1409.050781,462.350220 1437.698608,462.947205 
	C1440.107666,462.997437 1442.529175,462.448700 1444.944946,462.178253 
	C1445.421021,462.183685 1445.897217,462.189117 1446.804199,462.658966 
	C1448.819214,463.098785 1450.403320,463.074219 1451.987305,463.049622 
	C1453.114380,463.288086 1454.241455,463.526550 1455.890625,464.152954 
	C1457.033569,464.661530 1457.654541,464.782166 1458.275513,464.902802 
	C1465.167603,469.098846 1472.972168,472.321259 1478.734375,477.722626 
	C1487.047974,485.515503 1493.902588,494.869904 1501.335205,503.595947 
	C1506.613770,509.793243 1506.950195,516.710754 1504.567749,524.231995 
	C1498.636230,542.958130 1487.870239,558.577148 1473.866577,572.032654 
	C1464.768555,580.774475 1455.241699,589.069824 1445.727539,597.728516 
	C1430.737305,583.942444 1416.158813,570.550659 1401.597534,557.140259 
	C1374.785522,532.447388 1347.983521,507.743622 1320.960205,482.456451 
	C1320.402710,481.651672 1320.062500,481.434814 1319.722412,481.217957 
	C1319.722412,481.217957 1319.825806,481.258820 1319.750244,480.995605 
	C1319.344604,480.583221 1319.014526,480.434113 1318.684448,480.284973 
	C1318.684448,480.284943 1318.860718,480.068481 1318.767578,479.900604 
	C1318.344116,479.583893 1318.013794,479.435028 1317.683472,479.286163 
	C1317.683472,479.286163 1317.862793,479.226166 1317.770996,478.931030 
	C1316.411133,477.771881 1315.142944,476.907898 1313.874878,476.043945 
	C1312.650513,475.017365 1311.426025,473.990753 1309.976074,472.401062 
	C1309.417847,471.615143 1309.084961,471.392334 1308.752197,471.169495 
	C1308.752197,471.169525 1308.868286,471.193665 1308.781128,470.954224 
	C1308.366699,470.556763 1308.039307,470.398743 1307.712036,470.240692 
	C1307.712036,470.240692 1307.856934,470.150299 1307.770020,469.935852 
	C1307.351807,469.577942 1307.020264,469.434509 1306.688843,469.291077 
	C1306.688843,469.291107 1306.936279,469.070953 1306.804199,468.903778 
	C1306.340454,468.590637 1306.008667,468.444702 1305.677002,468.298737 
	C1305.677002,468.298737 1305.724487,468.189667 1305.651611,467.914368 
	C1305.173340,467.480347 1304.767822,467.321594 1304.362305,467.162842 
z"/>
<path fill="#E8983F" opacity="1.000000" stroke="none" 
	d="
M844.829712,1092.000000 
	C844.829651,1026.760010 844.829651,962.020081 844.829651,897.280151 
	C845.222046,897.030762 845.614502,896.781311 846.006897,896.531921 
	C886.058044,932.394470 926.109131,968.257080 966.719788,1004.620667 
	C926.380371,1051.767700 886.188232,1098.742676 845.996033,1145.717651 
	C845.607300,1145.640869 845.218567,1145.563965 844.829834,1145.487183 
	C844.829834,1127.824829 844.829834,1110.162354 844.829712,1092.000000 
z"/>
<path fill="#E8983E" opacity="1.000000" stroke="none" 
	d="
M756.290588,1123.702759 
	C722.298157,1083.971313 688.538696,1044.507690 654.423035,1004.627686 
	C694.886536,968.384766 734.981567,932.471802 775.911194,895.811279 
	C775.911194,979.845520 775.911194,1062.625610 775.911194,1146.536255 
	C769.003601,1138.496338 762.763550,1131.233521 756.290588,1123.702759 
z"/>
<path fill="#46904E" opacity="1.000000" stroke="none" 
	d="
M717.101074,813.796997 
	C716.915222,812.028381 716.568237,810.259827 716.567139,808.491089 
	C716.537659,760.851440 716.543701,713.211853 716.543762,665.572205 
	C716.543762,663.627441 716.543762,661.682739 716.543762,659.305298 
	C691.131042,659.305298 666.371521,659.305298 641.211060,659.305298 
	C641.211060,647.654053 641.211060,636.429321 641.211060,624.789429 
	C702.811707,624.789429 764.486328,624.789429 826.549438,624.789429 
	C826.549438,635.973572 826.549438,647.185608 826.549438,658.989746 
	C801.677490,658.989746 776.801880,658.989746 751.127625,658.989746 
	C751.127625,661.490479 751.127625,663.412231 751.127625,665.333923 
	C751.126831,712.973572 751.129639,760.613159 751.111938,808.252808 
	C751.111267,810.068237 750.913635,811.883606 750.094238,813.503235 
	C742.977661,813.203369 736.573303,812.975525 730.171875,813.038086 
	C725.812866,813.080688 721.457886,813.529724 717.101074,813.796997 
z"/>
<path fill="#46904F" opacity="1.000000" stroke="none" 
	d="
M513.058167,813.904541 
	C512.682556,812.295044 511.980682,810.685913 511.978760,809.075989 
	C511.920807,760.938965 511.876068,712.801758 512.028442,664.665161 
	C512.042053,660.352417 511.066132,658.981506 506.543488,659.033508 
	C485.059570,659.280457 463.571198,659.143250 442.084412,659.142883 
	C440.293121,659.142822 438.501801,659.142822 436.392822,659.142822 
	C436.392822,647.444641 436.392822,636.220642 436.392822,624.466187 
	C498.183411,624.466187 559.758789,624.466187 621.300659,625.086243 
	C621.190125,636.773743 621.113098,647.841125 621.036133,658.908569 
	C598.400635,658.986816 575.765137,659.065552 553.129639,659.142334 
	C551.165161,659.148987 549.200684,659.143250 546.428162,659.143250 
	C546.428162,710.798950 546.428162,761.998657 546.117676,813.042297 
	C545.807251,762.252258 545.807251,711.618286 545.807251,660.984253 
	C545.467529,660.983459 545.127747,660.982666 544.788025,660.981873 
	C544.788025,711.524231 544.788025,762.066589 544.788025,812.994690 
	C536.692932,812.994690 529.214172,812.911987 521.738953,813.036377 
	C518.841370,813.084595 515.951538,813.601318 513.058167,813.904541 
z"/>
<path fill="#E89940" opacity="1.000000" stroke="none" 
	d="
M1266.164307,362.000000 
	C1266.164429,317.764923 1266.164429,274.029877 1266.164429,228.748398 
	C1298.723633,252.867081 1330.261719,276.229370 1362.440308,300.066101 
	C1330.400024,329.888245 1298.757080,359.340454 1266.164307,389.676819 
	C1266.164307,379.671417 1266.164307,371.085693 1266.164307,362.000000 
z"/>
<path fill="#E8983F" opacity="1.000000" stroke="none" 
	d="
M364.052551,366.999878 
	C364.052582,374.423767 364.052582,381.347748 364.052582,389.586060 
	C331.563232,359.352844 299.995148,329.976959 267.872589,300.085083 
	C299.887390,276.356354 331.370850,253.021469 364.052551,228.798447 
	C364.052551,275.532104 364.052551,321.016022 364.052551,366.999878 
z"/>
<path fill="#E8993F" opacity="1.000000" stroke="none" 
	d="
M69.484589,929.545288 
	C72.553955,927.397705 74.667900,927.171143 77.394073,930.122192 
	C105.964348,961.049622 134.705399,991.819275 163.390778,1022.640381 
	C164.497833,1023.829895 165.519562,1025.098755 166.889984,1026.689209 
	C146.950638,1048.067139 127.266953,1069.171021 106.868668,1091.041016 
	C91.453224,1038.101318 76.332939,986.175293 61.132137,933.972717 
	C63.935738,932.481506 66.547981,931.092041 69.484589,929.545288 
z"/>
<path fill="#E8993F" opacity="1.000000" stroke="none" 
	d="
M1557.725342,1004.697388 
	C1549.313232,1033.477295 1541.051880,1061.879272 1532.558838,1091.077515 
	C1512.356323,1069.403076 1492.556763,1048.160889 1472.447266,1026.586182 
	C1477.787720,1020.796021 1482.914917,1015.185486 1488.097778,1009.626831 
	C1512.725464,983.213562 1537.403198,956.846863 1561.948486,930.357422 
	C1564.268433,927.853882 1565.990479,927.397156 1569.102539,929.012512 
	C1578.384766,933.830566 1578.445923,933.673828 1575.575928,943.513550 
	C1569.664917,963.778992 1563.774658,984.050537 1557.725342,1004.697388 
z"/>
<path fill="#E8983F" opacity="1.000000" stroke="none" 
	d="
M172.247650,413.772064 
	C193.878342,387.639893 215.504364,361.503845 237.146072,335.380798 
	C239.670990,332.333038 242.282852,329.357300 245.379715,325.733551 
	C273.257050,355.157837 300.765442,384.192688 327.968445,413.573608 
	C276.686584,413.949097 225.710129,413.979706 174.733658,413.998169 
	C173.905014,413.998474 173.076324,413.850739 172.247650,413.772064 
z"/>
<path fill="#E8983F" opacity="1.000000" stroke="none" 
	d="
M1303.786011,411.657410 
	C1317.658447,396.872894 1331.506104,382.065125 1345.410767,367.311066 
	C1356.931885,355.086304 1368.527588,342.931885 1380.069580,330.726685 
	C1381.544067,329.167450 1382.893311,327.489716 1384.775146,325.319366 
	C1408.890747,354.354858 1432.426392,382.692169 1455.957642,411.767120 
	C1454.516113,413.015503 1453.079834,413.970306 1451.641846,413.972656 
	C1404.014771,414.050873 1356.387573,414.062042 1308.760742,413.938232 
	C1307.100464,413.933899 1305.444214,412.451080 1303.786011,411.657410 
z"/>
<path fill="#448F4D" opacity="1.000000" stroke="none" 
	d="
M1370.128052,813.748474 
	C1369.909058,812.499695 1369.499146,811.250977 1369.498535,810.002014 
	C1369.466187,749.684021 1369.467651,689.365967 1369.477295,629.047974 
	C1369.477539,627.741455 1369.615723,626.434937 1369.710205,624.764282 
	C1381.109253,624.764282 1392.326294,624.764282 1404.128174,624.764282 
	C1404.128174,687.282349 1404.128174,749.703979 1403.556152,812.574890 
	C1397.228027,813.016113 1391.469971,812.908325 1385.716553,813.029602 
	C1380.517700,813.139099 1375.323975,813.498962 1370.128052,813.748474 
z"/>
<path fill="#E8993F" opacity="1.000000" stroke="none" 
	d="
M540.056274,142.106140 
	C582.081848,131.745544 623.695312,121.450699 665.277893,111.163513 
	C668.380188,118.463341 667.609131,123.875618 661.699341,129.902130 
	C635.126160,157.000137 609.175842,184.709183 583.030640,212.226135 
	C582.125732,213.178497 581.536377,214.430649 580.261047,216.357285 
	C561.174072,192.507812 542.944031,169.729095 524.172119,146.273270 
	C529.852722,144.767441 534.748535,143.469666 540.056274,142.106140 
z"/>
<path fill="#E8993F" opacity="1.000000" stroke="none" 
	d="
M1019.207092,134.840881 
	C1034.403076,138.604233 1049.204224,142.270325 1064.977783,146.177292 
	C1046.191772,169.665329 1027.967651,192.450851 1009.459656,215.591400 
	C1001.209106,207.002121 993.364319,198.889908 985.579773,190.720291 
	C966.401917,170.593811 947.251892,150.440811 928.089539,130.299561 
	C927.745178,129.937668 927.422180,129.542755 927.029053,129.241867 
	C920.724792,124.416153 920.659485,118.356781 923.792053,111.117226 
	C955.395874,118.975388 987.104065,126.859512 1019.207092,134.840881 
z"/>
<path fill="#45904E" opacity="1.000000" stroke="none" 
	d="
M346.172394,625.101501 
	C351.564056,624.864685 356.953705,624.528992 362.347961,624.417908 
	C368.130768,624.298767 373.917938,624.390991 379.903320,624.390991 
	C380.027832,626.294495 380.187256,627.596191 380.187500,628.897949 
	C380.198669,689.356873 380.198090,749.815857 380.178925,810.274780 
	C380.178589,811.417786 379.939392,812.560730 379.097931,813.498047 
	C368.127533,813.292480 357.870880,813.292480 347.007629,813.292480 
	C347.007629,810.477051 347.007660,808.531738 347.007660,806.586426 
	C347.007629,748.339417 347.016876,690.092468 346.972260,631.845459 
	C346.970520,629.597290 346.450775,627.349487 346.172394,625.101501 
z"/>
<path fill="#E8983F" opacity="1.000000" stroke="none" 
	d="
M1441.207764,1245.110352 
	C1434.767822,1252.478760 1428.406494,1259.917847 1421.871948,1267.201660 
	C1406.106567,1284.775024 1390.264282,1302.279785 1374.434937,1319.795776 
	C1373.571533,1320.751099 1372.545532,1321.559692 1371.278198,1322.729126 
	C1344.769531,1296.931030 1318.447388,1271.314331 1292.453857,1245.358032 
	C1342.257690,1245.048950 1391.732788,1245.079712 1441.207764,1245.110352 
z"/>
<path fill="#E8983F" opacity="1.000000" stroke="none" 
	d="
M347.431580,1245.311768 
	C338.577271,1254.081543 329.792053,1262.922119 320.853851,1271.605469 
	C304.141876,1287.840820 287.342072,1303.985840 270.574402,1320.163818 
	C269.863739,1320.849487 269.108154,1321.488647 267.655945,1322.795044 
	C244.629700,1297.133057 221.690048,1271.567505 199.124573,1245.574585 
	C200.496582,1245.099365 201.494400,1245.010132 202.492233,1245.009888 
	C249.313080,1245.002441 296.133911,1244.999756 342.954773,1245.015137 
	C344.447083,1245.015625 345.939301,1245.208618 347.431580,1245.311768 
z"/>
<path fill="#E99A41" opacity="1.000000" stroke="none" 
	d="
M1317.078369,1351.923828 
	C1322.747559,1357.083008 1328.166992,1361.991211 1334.300537,1367.546021 
	C1307.553589,1386.088257 1282.460571,1403.483887 1256.676025,1421.359009 
	C1256.676025,1377.848877 1256.676025,1335.184937 1256.676025,1291.979980 
	C1276.891968,1312.041504 1296.860229,1331.857178 1317.078369,1351.923828 
z"/>
<path fill="#E8993F" opacity="1.000000" stroke="none" 
	d="
M376.755554,1415.379517 
	C364.674591,1407.146851 352.570343,1398.948120 340.519379,1390.671631 
	C329.144409,1382.859253 317.821381,1374.971191 306.487366,1367.099487 
	C305.142578,1366.165527 303.871979,1365.124756 301.857971,1363.594971 
	C326.783020,1338.461548 351.422424,1313.616211 376.461121,1289.146484 
	C376.906128,1321.821777 376.973114,1354.121582 376.984589,1386.421265 
	C376.988037,1396.073975 376.836243,1405.726807 376.755554,1415.379517 
z"/>
<path fill="#ECA653" opacity="1.000000" stroke="none" 
	d="
M1303.481689,411.814087 
	C1305.444214,412.451080 1307.100464,413.933899 1308.760742,413.938232 
	C1356.387573,414.062042 1404.014771,414.050873 1451.641846,413.972656 
	C1453.079834,413.970306 1454.516113,413.015503 1456.063599,412.079163 
	C1457.301392,412.698914 1458.428955,413.744263 1460.440308,415.609070 
	C1406.274536,415.609070 1353.477417,415.609070 1300.680298,415.609070 
	C1300.156738,415.001312 1299.633301,414.393555 1299.109863,413.785797 
	C1300.465698,413.180786 1301.821655,412.575806 1303.481689,411.814087 
z"/>
<path fill="#ECA653" opacity="1.000000" stroke="none" 
	d="
M171.967773,413.938110 
	C173.076324,413.850739 173.905014,413.998474 174.733658,413.998169 
	C225.710129,413.979706 276.686584,413.949097 328.184143,413.852417 
	C328.739990,414.479828 328.774811,415.174469 328.809631,415.869110 
	C327.644470,415.888397 326.479279,415.924469 325.314117,415.924500 
	C275.505096,415.925842 225.696030,415.938812 175.887161,415.846252 
	C174.486328,415.843658 173.087601,414.710236 171.967773,413.938110 
z"/>
<path fill="#E78C01" opacity="1.000000" stroke="none" 
	d="
M375.217316,1181.368896 
	C374.932953,1079.629639 374.925629,978.136169 374.851929,876.152405 
	C375.201965,875.796509 375.967804,875.904419 375.980255,876.069275 
	C376.092957,877.559937 376.090912,879.060669 376.090942,880.558411 
	C376.094635,979.138733 376.098541,1077.718994 376.071320,1176.299316 
	C376.070831,1178.071167 375.695038,1179.842896 375.217316,1181.368896 
z"/>
<path fill="#E78C01" opacity="1.000000" stroke="none" 
	d="
M754.728455,840.160645 
	C752.757324,840.207581 751.097961,840.014893 749.438660,840.014648 
	C656.645264,840.000732 563.851868,840.002441 471.058472,840.008423 
	C469.893677,840.008545 468.728851,840.084229 467.066040,840.201050 
	C466.663177,839.808960 466.723785,838.944580 466.858887,838.932800 
	C468.345795,838.802856 469.844299,838.776611 471.339691,838.776550 
	C564.195618,838.772644 657.051514,838.771118 749.907410,838.792786 
	C751.688171,838.793213 753.469116,839.069275 755.248169,839.236206 
	C755.287659,839.239868 755.355774,839.494141 755.320618,839.602356 
	C755.271729,839.752930 755.137817,839.875977 754.728455,840.160645 
z"/>
<path fill="#E78C01" opacity="1.000000" stroke="none" 
	d="
M425.273438,413.841675 
	C427.382507,413.782562 429.205811,413.984528 431.029083,413.984802 
	C524.407532,413.997437 617.785950,413.992889 711.641602,413.969147 
	C710.755005,414.366882 709.392151,415.147369 708.027283,415.151031 
	C681.385132,415.223114 654.742737,415.204498 628.100403,415.204742 
	C561.994080,415.205353 495.887817,415.208832 429.781525,415.190857 
	C428.154327,415.190430 426.526825,414.957275 424.901428,414.811005 
	C424.839203,414.805389 424.741364,414.563721 424.759918,414.448090 
	C424.784729,414.293396 424.907166,414.154358 425.273438,413.841675 
z"/>
<path fill="#E78C01" opacity="1.000000" stroke="none" 
	d="
M881.405273,414.094727 
	C882.831177,413.856018 883.992920,413.986450 885.154663,413.986420 
	C979.196167,413.982330 1073.237671,413.968048 1167.763672,413.902222 
	C1168.127319,414.275085 1168.040405,415.054230 1167.880005,415.069672 
	C1166.560059,415.196777 1165.226440,415.206757 1163.896973,415.206787 
	C1071.360352,415.208527 978.823730,415.210388 886.287109,415.170593 
	C884.571655,415.169830 882.856384,414.669952 881.405273,414.094727 
z"/>
<path fill="#E78C01" opacity="1.000000" stroke="none" 
	d="
M424.783813,871.618164 
	C425.083710,967.061829 425.099213,1062.265503 425.201843,1157.970337 
	C424.837982,1158.354492 424.007843,1158.269775 423.994781,1158.115845 
	C423.868561,1156.626099 423.854828,1155.124756 423.854767,1153.626709 
	C423.850616,1061.308228 423.847198,968.989685 423.877625,876.671143 
	C423.878204,874.906799 424.283142,873.142578 424.783813,871.618164 
z"/>
<path fill="#E8983E" opacity="1.000000" stroke="none" 
	d="
M298.961060,462.011505 
	C272.111176,461.674347 245.258850,460.973816 218.412445,461.154083 
	C205.089218,461.243591 191.778076,462.968811 178.457672,463.899872 
	C177.168777,463.989990 175.853073,463.696930 174.276947,463.296692 
	C184.065353,461.908722 194.117981,459.967255 204.189621,459.862946 
	C232.415161,459.570587 260.648590,460.031738 288.878815,460.210266 
	C292.032898,460.230225 295.186401,460.344604 298.667328,460.915619 
	C298.983307,461.614532 298.972168,461.813019 298.961060,462.011505 
z"/>
<path fill="#E8983E" opacity="1.000000" stroke="none" 
	d="
M1444.556519,462.064880 
	C1442.529175,462.448700 1440.107666,462.997437 1437.698608,462.947205 
	C1409.050781,462.350220 1380.406738,461.554352 1351.757202,461.072327 
	C1343.835938,460.939026 1335.899902,461.669922 1327.487549,461.710052 
	C1326.987671,461.217773 1326.971069,461.019714 1326.954468,460.821686 
	C1335.699341,460.405884 1344.441040,459.737030 1353.189819,459.628265 
	C1370.114502,459.417847 1387.050537,459.203644 1403.967773,459.599091 
	C1417.378784,459.912598 1430.768799,461.133514 1444.556519,462.064880 
z"/>
<path fill="#007E03" opacity="1.000000" stroke="none" 
	d="
M346.033569,625.544922 
	C346.450775,627.349487 346.970520,629.597290 346.972260,631.845459 
	C347.016876,690.092468 347.007629,748.339417 347.007660,806.586426 
	C347.007660,808.531738 347.007629,810.477051 347.007629,813.292480 
	C357.870880,813.292480 368.127533,813.292480 378.662689,813.598999 
	C368.141968,813.905457 357.342773,813.905457 345.894714,813.905457 
	C345.894714,751.270386 345.894714,688.629333 346.033569,625.544922 
z"/>
<path fill="#008112" opacity="1.000000" stroke="none" 
	d="
M513.516479,813.985718 
	C515.951538,813.601318 518.841370,813.084595 521.738953,813.036377 
	C529.214172,812.911987 536.692932,812.994690 544.788025,812.994690 
	C544.788025,762.066589 544.788025,711.524231 544.788025,660.981873 
	C545.127747,660.982666 545.467529,660.983459 545.807251,660.984253 
	C545.807251,711.618286 545.807251,762.252258 545.860840,813.339478 
	C535.267944,813.884033 524.621399,813.975403 513.516479,813.985718 
z"/>
<path fill="#E78C01" opacity="1.000000" stroke="none" 
	d="
M347.703125,1245.148438 
	C345.939301,1245.208618 344.447083,1245.015625 342.954773,1245.015137 
	C296.133911,1244.999756 249.313080,1245.002441 202.492233,1245.009888 
	C201.494400,1245.010132 200.496582,1245.099365 198.998505,1245.255859 
	C198.435394,1244.919189 198.372513,1244.473633 198.309647,1244.028076 
	C199.638367,1243.995239 200.967102,1243.933960 202.295822,1243.933838 
	C249.374252,1243.929077 296.452667,1243.927490 343.531097,1243.941528 
	C345.007965,1243.941895 346.485168,1244.106445 347.960602,1244.216309 
	C348.045380,1244.222412 348.183289,1244.429321 348.176453,1244.534912 
	C348.166443,1244.688721 348.047302,1244.835327 347.703125,1245.148438 
z"/>
<path fill="#E78C01" opacity="1.000000" stroke="none" 
	d="
M1441.420166,1244.807617 
	C1391.732788,1245.079712 1342.257690,1245.048950 1292.302002,1245.056519 
	C1293.335571,1244.706543 1294.849121,1243.981567 1296.363892,1243.979248 
	C1337.675903,1243.918213 1378.988037,1243.903687 1420.300171,1243.956665 
	C1427.411255,1243.965820 1434.521729,1244.313599 1441.420166,1244.807617 
z"/>
<path fill="#008112" opacity="1.000000" stroke="none" 
	d="
M67.518394,813.985657 
	C68.285385,813.598938 69.509651,813.034363 70.734528,813.033020 
	C113.119850,812.987671 155.505234,812.993652 197.890610,813.009155 
	C198.706940,813.009460 199.523224,813.211243 200.635101,813.605103 
	C177.773880,813.951843 154.617081,814.034241 131.460220,814.066528 
	C110.298836,814.096008 89.137383,814.071289 67.518394,813.985657 
z"/>
<path fill="#008112" opacity="1.000000" stroke="none" 
	d="
M1447.562256,813.911804 
	C1448.372070,813.522522 1449.627319,813.028809 1450.883179,813.027649 
	C1493.242188,812.988220 1535.601318,812.993896 1577.960327,813.009827 
	C1578.776245,813.010132 1579.592041,813.212646 1580.686523,813.630615 
	C1536.645996,813.972595 1492.327026,814.004822 1447.562256,813.911804 
z"/>
<path fill="#E78C01" opacity="1.000000" stroke="none" 
	d="
M377.084503,1415.617310 
	C376.836243,1405.726807 376.988037,1396.073975 376.984589,1386.421265 
	C376.973114,1354.121582 376.906128,1321.821777 376.779419,1289.019287 
	C377.201141,1289.611694 378.133667,1290.704102 378.141296,1291.802856 
	C378.236206,1305.457764 378.193024,1319.113770 378.192413,1332.769409 
	C378.191254,1358.915039 378.208008,1385.060669 378.162720,1411.206299 
	C378.160034,1412.756226 377.674347,1414.305542 377.084503,1415.617310 
z"/>
<path fill="#E78C01" opacity="1.000000" stroke="none" 
	d="
M1201.972656,332.486053 
	C1201.595581,331.707458 1201.038696,330.469971 1201.036377,329.231445 
	C1200.987549,303.009033 1200.998779,276.786499 1201.016846,250.563995 
	C1201.017212,249.916443 1201.227905,249.269043 1201.634521,248.329498 
	C1201.969238,276.033844 1202.010132,304.030243 1201.972656,332.486053 
z"/>
<path fill="#007E03" opacity="1.000000" stroke="none" 
	d="
M1259.508057,717.898071 
	C1258.770264,718.288635 1257.567993,718.953613 1256.364258,718.956482 
	C1232.255493,719.013184 1208.146606,718.995361 1184.037720,718.977112 
	C1183.552612,718.976746 1183.067871,718.791687 1182.312256,718.374634 
	C1207.708618,717.992371 1233.375854,717.928223 1259.508057,717.898071 
z"/>
<path fill="#008112" opacity="1.000000" stroke="none" 
	d="
M1278.504761,813.992920 
	C1279.770752,813.616089 1281.496216,813.052246 1283.226318,813.037231 
	C1298.016846,812.908813 1312.808350,812.879761 1328.098877,812.684937 
	C1327.814575,813.056274 1327.033813,814.000671 1326.246460,814.006042 
	C1312.975342,814.097717 1299.703369,814.072998 1286.431641,814.072327 
	C1283.943237,814.072205 1281.454712,814.064575 1278.504761,813.992920 
z"/>
<path fill="#008112" opacity="1.000000" stroke="none" 
	d="
M1370.567871,813.893188 
	C1375.323975,813.498962 1380.517700,813.139099 1385.716553,813.029602 
	C1391.469971,812.908325 1397.228027,813.016113 1403.446655,813.035583 
	C1402.602051,813.388855 1401.297119,814.016968 1399.987427,814.026855 
	C1390.328003,814.099854 1380.667725,814.049500 1370.567871,813.893188 
z"/>
<path fill="#007E03" opacity="1.000000" stroke="none" 
	d="
M621.453857,658.773315 
	C621.113098,647.841125 621.190125,636.773743 621.545654,625.407471 
	C621.839966,636.285156 621.855774,647.461670 621.453857,658.773315 
z"/>
<path fill="#008112" opacity="1.000000" stroke="none" 
	d="
M717.545715,813.931091 
	C721.457886,813.529724 725.812866,813.080688 730.171875,813.038086 
	C736.573303,812.975525 742.977661,813.203369 749.662903,813.611084 
	C739.293518,813.964844 728.641907,814.015015 717.545715,813.931091 
z"/>
<path fill="#008112" opacity="1.000000" stroke="none" 
	d="
M1134.511963,813.987488 
	C1136.419922,813.606445 1138.786377,813.052979 1141.155273,813.042236 
	C1149.539795,813.004089 1157.925293,813.151550 1166.600342,813.517273 
	C1156.250732,813.891846 1145.611084,813.977844 1134.511963,813.987488 
z"/>
<path fill="#E8983E" opacity="1.000000" stroke="none" 
	d="
M1306.963379,462.009644 
	C1305.010742,462.466461 1303.057983,462.923279 1301.023682,463.765656 
	C1299.808716,463.339813 1298.675171,462.528412 1297.541748,461.717010 
	C1297.628662,461.383728 1297.715698,461.050415 1297.802612,460.717133 
	C1300.968506,460.717133 1304.134277,460.717133 1307.452759,460.982544 
	C1307.391357,461.501831 1307.177368,461.755737 1306.963379,462.009644 
z"/>
<path fill="#E8983E" opacity="1.000000" stroke="none" 
	d="
M325.330475,463.909088 
	C323.294983,463.364136 321.572906,462.683533 319.193573,461.744141 
	C317.340454,461.314636 316.144592,461.143921 314.948730,460.973206 
	C319.160980,460.973206 323.373230,460.973206 328.240814,460.973206 
	C327.104614,462.198364 326.374268,462.985901 325.330475,463.909088 
z"/>
<path fill="#E78C01" opacity="1.000000" stroke="none" 
	d="
M1307.435547,462.007172 
	C1307.177368,461.755737 1307.391357,461.501831 1307.821533,461.111969 
	C1313.035522,460.943420 1318.033081,460.910828 1323.779785,460.972443 
	C1324.717896,461.023712 1324.906860,460.980743 1325.095947,460.937744 
	C1325.508057,460.872345 1325.920044,460.806976 1326.643311,460.781616 
	C1326.971069,461.019714 1326.987671,461.217773 1327.021240,461.713562 
	C1320.661499,462.009125 1314.284546,462.006927 1307.435547,462.007172 
z"/>
<path fill="#E78C01" opacity="1.000000" stroke="none" 
	d="
M314.492035,460.925842 
	C316.144592,461.143921 317.340454,461.314636 318.783875,461.746216 
	C312.656433,462.005096 306.281464,462.003082 299.433777,462.006287 
	C298.972168,461.813019 298.983307,461.614532 299.019592,461.118896 
	C299.456757,460.807526 299.868805,460.793274 300.873413,460.918274 
	C301.661987,461.027588 301.858002,460.997711 302.053986,460.967865 
	C306.047760,460.938080 310.041565,460.908295 314.492035,460.925842 
z"/>
<path fill="#E8983E" opacity="1.000000" stroke="none" 
	d="
M159.730560,468.263977 
	C158.532288,469.444977 157.002762,470.651398 155.107697,471.801270 
	C156.294540,470.592957 157.846939,469.441162 159.730560,468.263977 
z"/>
<path fill="#E8983E" opacity="1.000000" stroke="none" 
	d="
M1314.002197,476.350037 
	C1315.142944,476.907898 1316.411133,477.771881 1317.700562,478.994080 
	C1316.524536,478.453613 1315.327026,477.554871 1314.002197,476.350037 
z"/>
<path fill="#E8983E" opacity="1.000000" stroke="none" 
	d="
M1451.636841,462.954834 
	C1450.403320,463.074219 1448.819214,463.098785 1447.125244,462.820770 
	C1448.438965,462.632111 1449.862671,462.746094 1451.636841,462.954834 
z"/>
<path fill="#E8983E" opacity="1.000000" stroke="none" 
	d="
M154.498077,471.753967 
	C154.013123,472.440369 153.199402,473.174744 152.021210,473.894775 
	C152.494278,473.187622 153.331787,472.494751 154.498077,471.753967 
z"/>
<path fill="#E8983E" opacity="1.000000" stroke="none" 
	d="
M1458.060791,464.664795 
	C1457.654541,464.782166 1457.033569,464.661530 1456.211670,464.289124 
	C1456.622681,464.167145 1457.234375,464.296967 1458.060791,464.664795 
z"/>
<path fill="#E8983E" opacity="1.000000" stroke="none" 
	d="
M169.660339,463.970520 
	C169.418335,464.297882 168.834579,464.603821 167.896912,464.887482 
	C168.134857,464.559814 168.726730,464.254425 169.660339,463.970520 
z"/>
<path fill="#E8983E" opacity="1.000000" stroke="none" 
	d="
M1305.741089,468.561432 
	C1306.008667,468.444702 1306.340454,468.590637 1306.695312,469.028503 
	C1306.413940,469.154968 1306.109619,468.989563 1305.741089,468.561432 
z"/>
<path fill="#E8983E" opacity="1.000000" stroke="none" 
	d="
M1307.786621,470.506042 
	C1308.039307,470.398743 1308.366699,470.556763 1308.743164,470.999786 
	C1308.481934,471.113647 1308.171631,470.942535 1307.786621,470.506042 
z"/>
<path fill="#E8983E" opacity="1.000000" stroke="none" 
	d="
M1308.830688,471.463928 
	C1309.084961,471.392334 1309.417847,471.615143 1309.817749,472.145050 
	C1309.559692,472.220886 1309.234375,471.989624 1308.830688,471.463928 
z"/>
<path fill="#E8983E" opacity="1.000000" stroke="none" 
	d="
M1317.749268,479.548798 
	C1318.013794,479.435028 1318.344116,479.583893 1318.701172,480.023376 
	C1318.423584,480.146484 1318.119263,479.978973 1317.749268,479.548798 
z"/>
<path fill="#E8983E" opacity="1.000000" stroke="none" 
	d="
M1318.750122,480.547638 
	C1319.014526,480.434113 1319.344604,480.583221 1319.701782,481.022827 
	C1319.424561,481.145630 1319.120117,480.977966 1318.750122,480.547638 
z"/>
<path fill="#E8983E" opacity="1.000000" stroke="none" 
	d="
M1319.793579,481.517090 
	C1320.062500,481.434814 1320.402710,481.651672 1320.807739,482.180298 
	C1320.536743,482.266785 1320.200684,482.041504 1319.793579,481.517090 
z"/>
<path fill="#E8983E" opacity="1.000000" stroke="none" 
	d="
M301.931702,460.851532 
	C301.858002,460.997711 301.661987,461.027588 301.175934,460.990570 
	C301.193756,460.860840 301.501587,460.798035 301.931702,460.851532 
z"/>
<path fill="#E8983E" opacity="1.000000" stroke="none" 
	d="
M1324.970703,460.831116 
	C1324.906860,460.980743 1324.717896,461.023712 1324.241699,461.020203 
	C1324.193970,460.719788 1324.490967,460.636719 1324.970703,460.831116 
z"/>
<path fill="#E8983E" opacity="1.000000" stroke="none" 
	d="
M1304.510498,467.457001 
	C1304.767822,467.321594 1305.173340,467.480347 1305.695312,467.954803 
	C1305.427490,468.097412 1305.042969,467.924286 1304.510498,467.457001 
z"/>
<path fill="#E8983E" opacity="1.000000" stroke="none" 
	d="
M1306.760864,469.552307 
	C1307.020264,469.434509 1307.351807,469.577942 1307.725098,470.008392 
	C1307.455566,470.134766 1307.144165,469.974152 1306.760864,469.552307 
z"/>
<path fill="#FDFDFC" opacity="1.000000" stroke="none" 
	d="
M897.074219,817.650696 
	C898.409851,815.025635 899.540466,812.270569 901.111450,809.794922 
	C930.611389,763.308594 960.163208,716.855225 989.709656,670.398499 
	C990.047546,669.867310 990.460022,669.383606 991.106079,668.518433 
	C992.010803,669.552612 992.832825,670.290344 993.413391,671.184692 
	C1024.112305,718.476379 1054.796021,765.777954 1085.441162,813.104492 
	C1086.204102,814.282898 1086.515625,815.753662 1086.427368,817.336792 
	C1022.902832,817.607239 959.988586,817.628967 897.074219,817.650696 
z"/>
<path fill="#228635" opacity="1.000000" stroke="none" 
	d="
M897.284424,818.022095 
	C959.988586,817.628967 1022.902832,817.607239 1086.257812,817.670654 
	C1085.516357,818.172363 1084.336304,818.945679 1083.152222,818.951599 
	C1067.336426,819.031250 1051.520020,819.002869 1035.703857,819.002563 
	C991.585083,819.001709 947.466309,819.009094 903.347534,818.975098 
	C901.396423,818.973572 899.445496,818.595947 897.284424,818.022095 
z"/>
</svg>