<?xml version="1.0" encoding="UTF-8"?>
<svg id="katman_2" data-name="katman 2" xmlns="http://www.w3.org/2000/svg" viewBox="0 0 506.6 351.34">
  <defs>
    <style>
      .cls-1 {
        fill: #f69320;
      }

      .cls-1, .cls-2 {
        stroke-width: 0px;
      }

      .cls-2 {
        fill: #199146;
      }
    </style>
  </defs>
  <g id="Layer_1" data-name="Layer 1">
    <path class="cls-1" d="m72.32,180.8h71.55c.68.85,1.37,1.7,2.05,2.55-10.82,10.2-21.52,20.52-32.59,30.44-1.57,1.41-6.15,2.05-7.31.93-10.66-10.2-20.88-20.87-33.69-33.92Z"/>
    <path class="cls-1" d="m116.91,223.39c10.58-10.63,21.5-21.61,34.22-34.4v72.06c-13.05-14.36-23.64-26.01-34.22-37.66Z"/>
    <path class="cls-1" d="m162.2,255.79v-67.71c12.22,11.99,23.65,23.22,35.16,34.52-11.83,11.17-24.12,22.77-35.16,33.19Z"/>
    <path class="cls-1" d="m235.75,92.34c-12.62,12.03-24.29,23.15-35.61,33.94-10.14-10.15-21.55-21.58-33.89-33.94h69.49Z"/>
    <path class="cls-1" d="m244.43,6.32v63.91c-10.93-11.06-22.1-22.36-34.12-34.53,10.1-8.57,17.86-22.17,34.12-29.38Z"/>
    <path class="cls-1" d="m205.98,229.88c11.16,11.17,22.29,22.31,34.7,34.72h-68.94c11.48-11.65,22.71-23.03,34.24-34.72Z"/>
    <path class="cls-1" d="m168.08,81.89c13.33-13.21,24.1-23.88,35.84-35.52,11.14,12.43,21.6,24.09,31.84,35.52h-67.68Z"/>
    <path class="cls-1" d="m171.75,180.67h68.21c-12.45,11.41-23.95,21.96-36.49,33.46-8.82-9.3-19.39-20.46-31.72-33.46Z"/>
    <path class="cls-1" d="m243.63,289.61v60.55c-16.79-3.62-22.51-18.75-35.29-24.59,12.36-12.6,23.1-23.55,35.29-35.97Z"/>
    <path class="cls-1" d="m261.09,290.79c0,20.8,0,39.56,0,60.55,16.79-3.62,22.51-18.75,35.29-24.59-12.36-12.6-23.1-23.55-35.29-35.97Z"/>
    <path class="cls-1" d="m244.43,190.64v63.38c-12.71-11.23-21.75-20.94-31.29-32.09,7.07-6.33,20.49-21.62,31.29-31.29Z"/>
    <path class="cls-1" d="m257.87,190.64c0,18.14,0,42.9,0,63.99,12.71-11.23,21.17-21.42,32.63-32.3-7.07-6.33-22.51-20.76-32.63-31.69Z"/>
    <path class="cls-1" d="m194.59,37.01c-12.69,12.86-23.26,24.6-34.9,34.99,0-11.07-2.17-25.49-1.54-37.53.47-8.94,12.58-18.38,19.68-12.82,4.19,3.28,10.94,10.44,16.76,15.36Z"/>
    <path class="cls-1" d="m108.15,231.7c12.17,11.49,22.96,21.67,36.06,34.03-14.64,0-26.72.64-38.7-.22-8.05-.58-13.42-17.95-7.84-23.95,3.56-3.84,7.63-7.21,10.48-9.86Z"/>
    <path class="cls-1" d="m103.52,128.43c-2.49-2.38-7.79-7.68-10.88-11.85-2.28-3.07-5.11-8.7-3.81-10.83,2.77-4.56,7.71-10.1,12.39-10.75,11.18-1.55,22.71-.5,36.04-.5-12.18,11.2-22.72,21.75-33.73,33.93Z"/>
    <path class="cls-1" d="m125.89,54.98c8.92-6.61,14-13.2,21.65-18.87,0,13.16-.14,26.21-.14,39.63-8.26-7.69-13.94-13.71-21.52-20.76Z"/>
    <path class="cls-1" d="m80.61,201.41c6.84,7.34,13.68,14.67,21.6,23.16-3.49,3.74-7.71,8.27-13.96,14.97-4.01-13.78-7.33-25.18-10.65-36.59,1-.52,2.01-1.03,3.01-1.55Z"/>
    <path class="cls-1" d="m140.4,81.94h-37.25c6.55-7.88,11.57-13.92,17.39-20.92,6.72,7.08,12.68,13.36,19.86,20.92Z"/>
    <path class="cls-1" d="m125.82,293.71c-4.6-5.1-9.76-10.84-16.57-18.39h35.54c-6.58,6.38-12.56,12.18-18.97,18.39Z"/>
    <path class="cls-1" d="m203.75,28.47c-4.95-5.13-11.23-10.05-16.51-16.64,11.85-2.95,28.37-5.73,39.29-6.82.15.91-14.54,14.8-22.78,23.46Z"/>
    <path class="cls-1" d="m146.1,289.59v30.29c-6.75-4.68-12.07-8.36-17.8-12.33,5.68-5.73,10.61-10.71,17.8-17.96Z"/>
    <path class="cls-1" d="m397.32,221.94c-10.58-10.63-24.66-26.23-38.06-38.06,0,23.9,0,50.98,0,77.17,13.05-14.36,27.47-27.46,38.06-39.11Z"/>
    <path class="cls-1" d="m350.32,261.05c0-20.95,0-53.69,0-77.17-12.22,11.99-26.85,27.43-38.36,38.72,12.22,12.16,27.32,28.02,38.36,38.45Z"/>
    <path class="cls-1" d="m255.28,5.01c0,22.89,0,47.48,0,67.82,10.93-11.06,22.1-22.36,34.12-34.53-10.22-9.35-21.07-20.33-34.12-33.29Z"/>
    <path class="cls-1" d="m299.07,229.88c-11.16,11.17-22.29,22.31-34.7,34.72,23.87,0,46.25,0,68.94,0-11.48-11.65-22.71-23.03-34.24-34.72Z"/>
    <path class="cls-1" d="m333.23,81.89c-13.33-13.21-24.1-23.88-35.84-35.52-11.14,12.43-21.6,24.09-31.84,35.52,20.41,0,42.16,0,67.68,0Z"/>
    <path class="cls-1" d="m304.04,39.33c13.53,12.07,24.96,22.27,36.6,32.66,0-11.07.47-23.16-.16-35.2-.47-8.94-15.37-14.79-22.47-9.23-4.19,3.28-8.15,6.85-13.97,11.77Z"/>
    <path class="cls-1" d="m406.51,231.7c-12.17,11.49-22.96,21.67-36.06,34.03,14.64,0,26.72.64,38.7-.22,8.05-.58,13.42-17.95,7.84-23.95-3.56-3.84-7.63-7.21-10.48-9.86Z"/>
    <path class="cls-1" d="m315.72,323c9.26,13.56,15.42,15.84,27.62,5.94,2.93-2.38,5.47-6.77,6.56-10.3,3.51-11.26,5.73-25.08,5.73-34.76-.97-.33-29.22,27.49-39.91,39.12Z"/>
    <path class="cls-1" d="m400.8,124.39c2.49-2.38,6.84-5.62,9.94-9.79,2.28-3.07,5.11-8.7,3.81-10.83-2.77-4.56-7.71-10.1-12.39-10.75-11.18-1.55-22.71-.5-36.04-.5,12.18,11.2,22.92,21.07,34.67,31.87Z"/>
    <path class="cls-1" d="m378.08,54.98c-8.92-6.61-14.65-10.86-22.31-16.54,0,13.16,0,23.87,0,37.3,8.26-7.69,14.73-13.71,22.31-20.76Z"/>
    <path class="cls-1" d="m437.57,200.35c-6.84,7.15-13.68,14.31-21.6,22.59,3.49,3.65,7.71,8.07,13.96,14.6,4.01-13.44,8.64-36.69,7.64-37.19Z"/>
    <path class="cls-1" d="m366.78,81.94c12.61,0,23.46,0,37.25,0-6.55-7.88-11.57-13.92-17.39-20.92-6.72,7.08-12.68,13.36-19.86,20.92Z"/>
    <path class="cls-1" d="m382.02,293.07c4.6-5.1,9.76-10.84,16.57-18.39-13.05,0-23.9,0-35.54,0,6.58,6.38,12.56,12.18,18.97,18.39Z"/>
    <path class="cls-1" d="m268.88.1c6.15,6.46,16.71,16.64,24.95,25.3,4.98-5.33,10.58-10.15,16.25-16.48-12.41-3.91-41.05-9.73-41.2-8.82Z"/>
    <path class="cls-1" d="m361.55,290.77c0,11.2,0,19.48,0,30.29,6.75-4.68,12.07-8.36,17.8-12.33-5.68-5.73-10.61-10.71-17.8-17.96Z"/>
    <path class="cls-2" d="m335.57,181.78l.04-.04h-.06c-13.47-21.34-23.47-38.62-35.32-57.4l16.98-17.64,17.28-17.95h-69.11l17.28,17.95,17.01,17.67c-11.27,20.06-22.75,38.91-33.11,57.37h-.05l.03.03s-.05.08-.07.12h.19l17.13,17.8,17.28,17.95,17.28-17.95,17.13-17.8h.19s-.05-.08-.07-.12Zm-58.92-1.26c7.53-11.84,15.39-24.22,23.62-37.16,7.44,11.47,15.19,23.41,24.11,37.16h-47.73Z"/>
    <g>
      <path class="cls-2" d="m41.12,162.3c0,1.47-.19,2.8-.56,3.97-.37,1.18-.87,2.21-1.48,3.11-.61.9-1.33,1.66-2.15,2.3-.82.63-1.67,1.15-2.55,1.55-.88.4-1.77.7-2.68.89-.91.19-1.77.29-2.57.29H.34v-7.46h28.78c1.43,0,2.55-.42,3.34-1.26.79-.84,1.19-1.97,1.19-3.39,0-.69-.11-1.32-.32-1.89-.21-.57-.51-1.07-.9-1.49-.39-.42-.87-.75-1.43-.98-.56-.23-1.19-.34-1.88-.34H11.97c-1.21,0-2.51-.21-3.9-.65-1.4-.43-2.69-1.12-3.89-2.08-1.2-.96-2.19-2.21-2.98-3.76-.79-1.55-1.19-3.44-1.19-5.68s.4-4.13,1.19-5.67c.79-1.54,1.79-2.79,2.98-3.76,1.2-.97,2.49-1.66,3.89-2.09,1.4-.43,2.7-.65,3.9-.65h25.4v7.46H11.97c-1.42,0-2.52.43-3.31,1.29-.79.86-1.19,2-1.19,3.41s.4,2.57,1.19,3.4c.79.83,1.9,1.25,3.31,1.25h17.22c.8.02,1.65.13,2.55.33.9.2,1.79.51,2.68.93.89.42,1.74.95,2.54,1.59.8.64,1.52,1.41,2.14,2.31.62.9,1.11,1.93,1.48,3.1.36,1.17.55,2.49.55,3.96Z"/>
      <path class="cls-2" d="m84.22,174.41h-7.46v-41.15h7.46v41.15Z"/>
      <path class="cls-2" d="m159.52,140.72h-16.44v33.69h-7.46v-33.69h-16.47v-7.46h40.38v7.46Z"/>
      <path class="cls-2" d="m231.58,140.72h-16.44v33.69h-7.46v-33.69h-16.47v-7.46h40.38v7.46Z"/>
      <path class="cls-2" d="m392.03,147.1c0,1.7-.21,3.22-.63,4.56-.42,1.34-.99,2.52-1.71,3.54-.72,1.02-1.55,1.9-2.48,2.63-.94.73-1.92,1.32-2.94,1.79-1.02.47-2.06.81-3.1,1.02-1.04.21-2.02.32-2.94.32l15.58,13.46h-11.54l-15.55-13.46h-5.37v-7.46h16.87c.94-.08,1.79-.27,2.57-.59.77-.32,1.44-.74,2.01-1.28.56-.54,1-1.18,1.31-1.94.31-.76.46-1.62.46-2.6v-4.71c0-.42-.05-.74-.16-.96-.11-.22-.24-.38-.4-.49-.16-.1-.33-.17-.52-.19-.18-.02-.35-.03-.5-.03h-24.62v33.69h-7.46v-37.39c0-.52.1-1,.29-1.46.19-.46.45-.86.79-1.21.33-.34.73-.61,1.19-.8.46-.19.96-.29,1.49-.29h28.32c1.66,0,3.07.3,4.22.9,1.15.6,2.08,1.36,2.8,2.27.72.91,1.23,1.89,1.55,2.94.32,1.05.47,2.04.47,2.96v4.76Z"/>
      <path class="cls-2" d="m437.5,174.41h-7.46v-41.15h7.46v41.15Z"/>
      <path class="cls-2" d="m506.6,162.3c0,1.47-.19,2.8-.56,3.97-.37,1.18-.87,2.21-1.48,3.11-.61.9-1.33,1.66-2.15,2.3-.82.63-1.67,1.15-2.55,1.55-.88.4-1.77.7-2.68.89-.91.19-1.77.29-2.57.29h-28.78v-7.46h28.78c1.43,0,2.55-.42,3.34-1.26.79-.84,1.19-1.97,1.19-3.39,0-.69-.11-1.32-.32-1.89-.21-.57-.51-1.07-.9-1.49-.39-.42-.87-.75-1.43-.98-.56-.23-1.19-.34-1.88-.34h-17.16c-1.21,0-2.51-.21-3.9-.65-1.4-.43-2.69-1.12-3.89-2.08-1.2-.96-2.19-2.21-2.98-3.76-.79-1.55-1.19-3.44-1.19-5.68s.4-4.13,1.19-5.67c.79-1.54,1.79-2.79,2.98-3.76,1.2-.97,2.49-1.66,3.89-2.09,1.4-.43,2.7-.65,3.9-.65h25.4v7.46h-25.4c-1.42,0-2.52.43-3.31,1.29-.79.86-1.19,2-1.19,3.41s.4,2.57,1.19,3.4c.79.83,1.9,1.25,3.31,1.25h17.22c.8.02,1.65.13,2.55.33.9.2,1.79.51,2.68.93.89.42,1.74.95,2.54,1.59.8.64,1.52,1.41,2.14,2.31.62.9,1.11,1.93,1.48,3.1.36,1.17.55,2.49.55,3.96Z"/>
    </g>
    <path class="cls-1" d="m405.85,181.48h0c-10.32,0-21.09,0-32.72,0,11.83,12.05,21.27,21.9,31.11,31.32.41.39,1.28.54,2.27.52.97.02,1.81-.13,2.21-.52,9.84-9.42,19.28-19.27,31.11-31.32h-33.98Z"/>
    <path class="cls-1" d="m301.13,275.87h0c-11.77,0-24.04,0-37.3,0,13.49,13.73,24.24,24.96,35.46,35.7.47.45,1.46.62,2.59.59,1.1.02,2.06-.15,2.51-.59,11.22-10.74,21.97-21.96,35.46-35.7h-38.73Z"/>
    <path class="cls-1" d="m199.5,275.87h0c-11.77,0-24.04,0-37.3,0,13.49,13.73,24.24,24.96,35.46,35.7.47.45,1.46.62,2.59.59,1.1.02,2.06-.15,2.51-.59,11.22-10.74,21.97-21.96,35.46-35.7h-38.73Z"/>
    <path class="cls-1" d="m192.31,322c-10.24,12.84-16.55,14.66-27.99,3.88-2.75-2.59-4.95-7.16-5.78-10.76-2.66-11.49-3.85-25.44-3.14-35.09.99-.26,27.1,29.58,36.9,41.97Z"/>
  </g>
</svg>